<svg xmlns="http://www.w3.org/2000/svg" xmlns:xlink="http://www.w3.org/1999/xlink" width="320" height="71.996" viewBox="0 0 320 71.996">
  <defs>
    <linearGradient id="linear-gradient" y1="1" x2="1" gradientUnits="objectBoundingBox">
      <stop offset="0" stop-color="#1450a0"/>
      <stop offset="0.448" stop-color="#b4a0dc"/>
      <stop offset="1" stop-color="#f0b4a0"/>
    </linearGradient>
  </defs>
  <path id="Title_TAG:H1_" data-name="Title [TAG:H1]" d="M-151.935-34.952a31.864,31.864,0,0,1,3.81-15.821A28.289,28.289,0,0,1-137.9-61.437a27.3,27.3,0,0,1,14.336-3.855,34.8,34.8,0,0,1,9.023,1.1,27.137,27.137,0,0,1,7.519,3.254,27.014,27.014,0,0,1,6.015,5.157v-7.31a30.7,30.7,0,0,0-9.624-5.858A37.14,37.14,0,0,0-123.564-70.9a34.472,34.472,0,0,0-13.584,2.654,32.423,32.423,0,0,0-10.877,7.46,34.637,34.637,0,0,0-7.218,11.415,38.959,38.959,0,0,0-2.607,14.419,38.959,38.959,0,0,0,2.607,14.419,34.637,34.637,0,0,0,7.218,11.415,32.423,32.423,0,0,0,10.877,7.46A34.472,34.472,0,0,0-123.564,1,37.141,37.141,0,0,0-110.632-.957a30.7,30.7,0,0,0,9.624-5.858v-7.41a28.687,28.687,0,0,1-5.965,5.207,25.587,25.587,0,0,1-7.469,3.3,35.224,35.224,0,0,1-9.123,1.1A27.03,27.03,0,0,1-137.9-8.517a28.675,28.675,0,0,1-10.226-10.714A31.654,31.654,0,0,1-151.935-34.952Zm64.261,12.016A24.543,24.543,0,0,0-84.567-10.57,22.666,22.666,0,0,0-76.1-2.008a23.673,23.673,0,0,0,12.08,3.1,23.673,23.673,0,0,0,12.08-3.1,22.666,22.666,0,0,0,8.471-8.561,24.543,24.543,0,0,0,3.108-12.366,24.468,24.468,0,0,0-3.108-12.417,22.771,22.771,0,0,0-8.471-8.511,23.673,23.673,0,0,0-12.08-3.1,23.673,23.673,0,0,0-12.08,3.1,22.771,22.771,0,0,0-8.471,8.511A24.468,24.468,0,0,0-87.674-22.936Zm5.313,0a19.978,19.978,0,0,1,2.406-9.913,17.736,17.736,0,0,1,6.566-6.759,18.1,18.1,0,0,1,9.373-2.453,18.1,18.1,0,0,1,9.373,2.453A17.64,17.64,0,0,1-48.075-32.8a20.055,20.055,0,0,1,2.406,9.863,19.978,19.978,0,0,1-2.406,9.913,17.736,17.736,0,0,1-6.566,6.759,18.1,18.1,0,0,1-9.373,2.453,18.1,18.1,0,0,1-9.373-2.453,17.736,17.736,0,0,1-6.566-6.759A19.978,19.978,0,0,1-82.361-22.936ZM3.052-29.545V.094H8.265v-30.24q0-7.71-3.81-12.266T-6.572-46.968a14.863,14.863,0,0,0-8.972,2.8,16.7,16.7,0,0,0-5.764,7.81v-9.613h-5.213V.094h5.213V-27.943a14.762,14.762,0,0,1,1.754-7.21,13.221,13.221,0,0,1,4.812-5.057,13.178,13.178,0,0,1,6.967-1.852q5.614,0,8.221,3.3T3.052-29.545Zm16.04-16.422v4.907H39.343v-4.907Zm7.519-16.021V.094h5.213V-61.988ZM50.972-13.724a9.463,9.463,0,0,1,1.6-5.708,9.643,9.643,0,0,1,4.461-3.3,18.792,18.792,0,0,1,6.767-1.1,28.078,28.078,0,0,1,8.07,1.152,24.911,24.911,0,0,1,7.268,3.555v-3.3a17.5,17.5,0,0,0-3.008-2.2,24.693,24.693,0,0,0-5.363-2.353A25.429,25.429,0,0,0,63-28.043q-8.02,0-12.682,3.905a13.118,13.118,0,0,0-4.662,10.614,13.988,13.988,0,0,0,2.206,8.111A13.986,13.986,0,0,0,53.679-.556,17.866,17.866,0,0,0,61.2,1.1a19.674,19.674,0,0,0,7.92-1.7,15.935,15.935,0,0,0,6.516-5.207,14.533,14.533,0,0,0,2.607-8.912l-1.2-4.406a17.1,17.1,0,0,1-2.005,8.611,13.63,13.63,0,0,1-5.263,5.307A14.56,14.56,0,0,1,62.6-3.41a14.592,14.592,0,0,1-5.865-1.152,9.527,9.527,0,0,1-4.211-3.455A9.976,9.976,0,0,1,50.972-13.724Zm.2-23.832a27.793,27.793,0,0,1,3.258-2.1,22.54,22.54,0,0,1,4.662-1.9,21.542,21.542,0,0,1,6.115-.8,15.461,15.461,0,0,1,5.614.9,9.451,9.451,0,0,1,3.659,2.4A9.226,9.226,0,0,1,76.436-35.7a12.4,12.4,0,0,1,.6,3.855V.094h5.213V-32.549a14.441,14.441,0,0,0-2.005-7.81,12.883,12.883,0,0,0-5.714-4.907,21.273,21.273,0,0,0-8.922-1.7,25.249,25.249,0,0,0-10.276,1.852,42.331,42.331,0,0,0-6.767,3.655ZM99.393-22.936a19.978,19.978,0,0,1,2.406-9.913,17.736,17.736,0,0,1,6.566-6.759,18.1,18.1,0,0,1,9.373-2.453,21.163,21.163,0,0,1,6.917,1.1,21.179,21.179,0,0,1,5.564,2.8,10.847,10.847,0,0,1,3.358,3.6V-41.06a16.774,16.774,0,0,0-6.466-4.156,24.9,24.9,0,0,0-9.373-1.752,23.4,23.4,0,0,0-12.03,3.1,23.266,23.266,0,0,0-8.471,8.511A24.163,24.163,0,0,0,94.08-22.936,24.237,24.237,0,0,0,97.238-10.57a23.154,23.154,0,0,0,8.471,8.561,23.4,23.4,0,0,0,12.03,3.1,25.549,25.549,0,0,0,9.373-1.7,15.749,15.749,0,0,0,6.466-4.206v-6.509a11.776,11.776,0,0,1-3.358,3.555,20.29,20.29,0,0,1-5.564,2.854,21.163,21.163,0,0,1-6.917,1.1,18.1,18.1,0,0,1-9.373-2.453,17.736,17.736,0,0,1-6.566-6.759A19.978,19.978,0,0,1,99.393-22.936ZM141.9-45.967v4.907H162.15v-4.907Zm7.519-16.021V.094h5.213V-61.988Z" transform="translate(157.85 70.9)" fill="url(#linear-gradient)"/>
</svg>
