<svg xmlns="http://www.w3.org/2000/svg" xmlns:xlink="http://www.w3.org/1999/xlink" width="529.151" height="117" viewBox="0 0 529.151 117">
  <defs>
    <linearGradient id="linear-gradient" y1="1" x2="1" gradientUnits="objectBoundingBox">
      <stop offset="0" stop-color="#1450a0"/>
      <stop offset="0.448" stop-color="#b4a0dc"/>
      <stop offset="1" stop-color="#f0b4a0"/>
    </linearGradient>
  </defs>
  <g id="Group_36174" data-name="Group 36174" transform="translate(-434.491 -345)">
    <g id="Rectangle_161" data-name="Rectangle 161" transform="translate(448 345)" fill="none" stroke="#c8c8ca" stroke-width="1">
      <rect width="504" height="117" stroke="none"/>
      <rect x="0.5" y="0.5" width="503" height="116" fill="none"/>
    </g>
    <path id="Path_424374" data-name="Path 424374" d="M106.518,61.225l-.317-.54-.438-.141-.3-.263-.192.014-.226-.135a7.675,7.675,0,0,0-.816-.446l-.315-.367-.359.025-.22-.141-.079-.021a14.329,14.329,0,0,0-2.02-.291l-.292-.052-.68-.038-.3.1-.028,0-.464-.194-.56.109-.075,0-.627-.025-.591.041-.4.168-.127.009-.148-.129-.463.033-.192.114-.163.053c-.221.018-.44.054-.618.082s-.346.054-.488.064l-.062.005-.059.019a3.611,3.611,0,0,1-.774.109l-.048,0-.866-.011-.568.112-1.351.095-.735.125-.476.113-1.057.416L88,60.386l-.988.323-.039.045-1.555.279a2.406,2.406,0,0,0-.66-.3l-.314-.274-.656.142a3.529,3.529,0,0,0-.424.005,7.747,7.747,0,0,0-1.082.177l-.608.112-.658.13-.372.261-.184.077-.59.351-.617.479a2.969,2.969,0,0,1-.442.305l-1,.19-.223-.057-1.364.316-1.116.008-.723.185a19.36,19.36,0,0,0-3.266-.041l-.968-.187-.655-.2-.8.138-.767.209-.722.331-.63,1.111-.056.782.4.571.607.347,1,.178,1.645-.189.058,0A12.9,12.9,0,0,0,71.9,65.93c.171-.036.333-.068.485-.1l.721-.051.433.112.185-.215.021-.008c.189-.018.376-.047.565-.082-.174.135-.351.268-.532.4l-.581.379-.577.343-.822.805-.949.417-.672.691-.423.56-.487.379-.25.1-.371.429-1.091.949-.212-.36-.5.875-.487.356-.067.077-.317.087-.475.458-1.454,1.3-.318.368-.184.361-.9,1.035-1.155.948-.124.219-.421.349-.835.965-.3.524L59.4,79.865l-.44,1.424.266,1.117.107-.044c.12.557.838.947,1.765,1.4.137.069.3.147.345.178l.056.036.062.021a5.109,5.109,0,0,0,1.161.226l.041,0,.041,0a.622.622,0,0,0,.129-.022l1.345.055,1.346-.022.44-.031.576.123.482-.2.252-.367.141-.058.254-.219c.675-.252,1.34-.568,2.043-.9.254-.121.517-.25.786-.37l.089-.006.523-.126.25-.148.7-.114.4-.129.586-.486.2-.292.446-.163.27-.312.029,0,.523-.455.609-.042-.019-.278.121-.009.4-.462.388-.29.561-.039-.026-.362a30.647,30.647,0,0,0,3.664-3.045l.116-.069.585-.509.362-.419.252-.366.591-.683.628-.488.484-.808.408-.8.013-.054a1.377,1.377,0,0,0,.028-.466c0-.021,0-.046,0-.065L84,70.188l.014-.039A6.347,6.347,0,0,0,84.235,69l0-.035-.02-1.409-.455-.91-.283-.552-1-.949-.618-.329-.315-.2-.109-.046-.321-.28-.242.018-.039-.014-.052-.018.422-.03.564-.259c.685-.127,1.324-.267,1.942-.411.475-.107.924-.208,1.377-.3l1.219-.01.392-.275.589-.177.115-.068c1.911-.4,4.037-.835,7.016-1.247h.016c.277-.045.5-.1.706-.15a5.486,5.486,0,0,1,1.026-.173l.844-.129,1.016-.072a21.685,21.685,0,0,1,4.463.02l.951.185.538.349.619.258.085.122c.009.034.019.066.031.1l-.343,1.107-.108.336c-.029.062-.058.126-.086.192a3.774,3.774,0,0,0-.292.826l-.01.061,0,.049-.123.218.1,1.4,1.2-.5.407-.717v-.013l.128-.149-.008-.125.172-.3.573-1.212.143-.413.469-.455-.041-.594ZM65.308,75.391l.025-.028.886-.735.326-.3.7-.523.779-.605,1.016-.639.376-.352.049-.056,1.264-.958.453-.3.678-.551,2.4-1.646.478-.474.566-.51c.552-.428,1.027-.829,1.439-1.178s.777-.656,1.147-.935l.306.079.587.3.674.174.442.154.529.283.459.283.351.306.288.49,0,.811-.238.662.029.423a9.708,9.708,0,0,1-.946,1.824l-.151.01L80,71.806l-.213.247-.062.149-.25.082-.258.509-.331.447-.412.4-.153.269-.152.237c-.48.487-.977.986-1.462,1.412l-.164.1-.214.248-1.882,1.483-.047,0L74,77.515l-1.249.78-.51.59-.629.372-.4.029-.107.26a24.668,24.668,0,0,1-2.672,1.21l-.33.137a9.192,9.192,0,0,1-3.389.983c-.311.022-.66.035-1.1.039h-.026A.926.926,0,0,1,63.5,81.9c-.045-.008-.1-.018-.156-.024l-.458-.261-.081.005a1.767,1.767,0,0,1-.3-.751l.016-.065.091-.22-.03-.438.094-.3.066-.377-.007-.1a5.645,5.645,0,0,1,.8-1.461l.107-.008.443-.725.552-.86ZM121.016,23.43c-.957-.112-1.944-.228-2.946-.318l-.37.089-.6.043-.331.109-.437-.078-1.047-.338c-1.094-.1-2.238-.15-3.348-.195l-.117.457-.789-.448L106.6,22.66l-1.482.306L104.71,23l-2.506-.1-.886.063,0-.069-.29.02-1.164.014-.205.014-.235-.061-1.381-.035c-.251.018-.5.017-.738.016s-.469,0-.692.016l-.276.019a3.655,3.655,0,0,1-.5-.008,2.548,2.548,0,0,0-.262-.008l-1.211.086-.072.173-1.205-.025-.124-.052c-.218.016-.433.011-.643.011-.168,0-.33,0-.489,0l-.209.241-.457-.3-.115.133-.262.2-.262.155-.3.021-.419-.04-.749.053-.63-.034-.611-.138-.055.018L87.7,23.7l-1.019.28-1.172.157-.871-.018-.614-.183-.618-.14-1.815.128L81,23.9l-.454-.032-5.061.356-1.185.153-.5.035-.681.187-1.348.095-.608-.09-.483.088-.5.209-.785-.177c-.169.012-.352.043-.545.07s-.421.063-.629.081l-.237.077-.763.21-.441-.032-.3.148-.691.048-.435.212-.6-.209-.225.016-1.8.262a3.189,3.189,0,0,1-.782.129l-.644.178-1.2.3-1.115.079-2.434.506-.81.409-1.393.255-.3-.055-.293.021a4.235,4.235,0,0,1-.721.184l-.19.146-.829.135-.888.344-1.4.17-.842.232-.33.256-2.012.353v.006l-.8.192-1.654.542-1.245.161-.165.012-1.032.249-.066.076-1.416.328-.806.335-.008-.112-.038,0,.009.122-.581.041-.817.251-.45.165-.268.111-.276.02-.17.07-.889.193-.2.153-.556.119-.481.176-1.188.218-1.037.616-.617.2-.506.137-.191-.079-.7.129-.539-.164-3.142.946a31.16,31.16,0,0,1-3.88,1.568l-.021.025-.374.541-.329.024-.1.055-.82.21-1.583.392-.856.194-2.053.759a23.675,23.675,0,0,0-2.409,1.287c-.418.245-.85.5-1.322.754-.809.594-1.58,1.064-2.4,1.562-.449.273-.913.556-1.387.863l-.109.07-.127.009a3.811,3.811,0,0,0-1.01.835,4.486,4.486,0,0,1-1.168.952.969.969,0,0,1-.557.126l-.073.759-.284.5-.464.112-.254.294-.8.2-.076.06-.126.143-2.254,2.19L.222,48.207l-.03-.439L0,47.244l.04-.315a.984.984,0,0,1,.042-.682l-.013-.2L.1,44.9l.314-.023L.6,44.67l-.034-.485.562-.649.572-.89.748-.771.089-.007.005-.011.517-.306.1-.071-.382-1.172,1.038.6.781-.66.353.306.389-.45.723.3.3-.249.658-.121.216-.128.27-.439.618-.715.975-.4,1.474-.24a4.5,4.5,0,0,1,.767-.383l.657-.39L13.1,36.9l1.364-.564.731-.513.612-.043,1.538-.612.541-.471,1.09-.325L19,34.4l.558-.434.747-.354-.017-.243.76-.053-.024-.347.972-.069.492-.126.188.079.078-.006.556-.23.3.17.223-.016.409-.1.3-.021.605-.27.209-.163.773-.293.807-.207,1.165-.152c.805-.221,1.556-.411,2.283-.6,1.109-.285,2.068-.532,2.912-.8H33.3l.937-.267.5-.18,3.642-.962.928-.133.171-.07,3.6-1.034,1.042-.144,1.369-.33v.007l1.528-.294,1.816-.683.872-.209,1.2-.227,1.42-.168.84-.192L54.012,25l3.17-.294.277-.02a7.729,7.729,0,0,0,1.178-.208l.657-.289.083-.474.978.094.537.288a1.944,1.944,0,0,0,.5-.089L61.41,24l.346-.095,1.091-.286.383-.106.822-.058.2.113,4.1-.619.188-.077,1-.216.476-.114,1.082.068a1.161,1.161,0,0,0,.15-.035,1.787,1.787,0,0,1,.371-.07l.128-.009,5.243-.576.281-.092.5-.035.819-.2.324-.023.464-.311.559-.04.848.219.81-.057.281.05,1.942-.137.046-.052.876-.151.955-.136.764-.132,1.15.2,2.911-.205.224-.569.515.449.569-.04.007.092,2.456-.061.421-.217.967-.232,1.045.135,1.042-.275.579-.041.741.095.825.079.447.032.591-.042,1.412.32a13.31,13.31,0,0,1,1.534.02l.371-.429.462.4,2.891.06,3.481.165.441-.107.654.116.332.043,1.074.126.782-.055.107.093.3.022.936,0,.534-.038.333.291,1.717.181.494-.107.654.116.867.14,1.327-.015.172.15,1.451.15.311.034c.664.072,1.349.147,2.009.273l.414-.1.784.166.156.2c1.326.315,2.643.758,3.922,1.187l.678.226.516-.036.316.056.489.035.163.029.345-.144.476-.033.486.59.385.222.607.409.065,0,.11.046a.915.915,0,0,1,.443.4l1.053.72.283,1.321-1.364-.075-.663-.506-.844-.382-6.813-1.849-.473.033-.68-.363a3.5,3.5,0,0,0-.637-.16l-.084-.014-.284.02-.107-.093-.094-.022-.027-.007-.1.007-.419-.04-.372.027-.205-.179-1.119-.224c-.648-.067-1.294-.142-1.977-.222m-61.9,18.884-.511.237-.594.109-.056.033-.609,1.334-.64.968-.247.436-.074.006-1.724,2.926-.47.315-1.066,1.7-.026.276.014,1.308-.436.678-.529,1.191-.334.2-.34.393-.262.018-.131.1-.33.137-.129.189-.171.494L49.647,56.6l-.354,1.195-.44.424-.3.486-.344.477-.169.2L46.977,61.03l-.043.168-.2.493-.248.435-.171.415L46,62.724l-.26.4-.066,0-1.7,2.709-.153.6-.263.637-.383.674-.444.829L42,69.536l-.072-.019-.509,1.628L40.6,72.21l-.365-.094-.6,1.1.358-.025-.936,1.082-.035.656-.25.148-.206.363-.207.24L38.128,76l-.251.441-.368.573-.429.757L36.687,78l-1.1,2.076,0,.055-.386.833-.079.091-.994,1.717L34.069,83l-.46.689-.085.217-.174.588-.2.392L32.38,86.6l-.6,1.537L31,89.369l-.238.141-.379.813.7.611L30.108,91c-.068.153-.131.311-.2.468-.095.23-.193.466-.305.707l-.042.328-.95,2.59.338.295-.6.357-.27.549.081.249-1.7,4.37-.329.286-.05.058a3.873,3.873,0,0,0-.274,1.058l-.015.16-.1.121c-.054.063-.107.122-.163.176l-.023.245-.165.507-.409.473-1.159-.714.129-.736.29-.392.659-2.753.731-2.042.1-.557-.005-.073.194-.868.048-.075a1.137,1.137,0,0,1,.678-.517l.249-.744a81.371,81.371,0,0,1,2.841-7.707l.838-2.358.322-.373a7.433,7.433,0,0,1,.973-1.868l.526-1.353.465-.677.083-.752,1.446-2.5.158-.7.836-1.514.6-1.1,1.188-1,1.166-1.967-.214-.187.612-.7.382-.38.1-.228.731-1.213.223-.782,1.334-2.229.428-.795L43.3,61.584l.932-1.3.247-.6.144-.167.519-.981-.009-.133.168-.195.42-.734.13-1.125.332-.585.562-.562.38-.174.073-.391.089-.161,0-.045-.17-.415.36-.416.04-.322.067-.1-.722-.63,1.2-.085.769-.889.053.089.04-.046.352-.695.016-.024,2.1-3.158.66-2.148.518-1.578.548-1.581.829-1.043.325-.157.237-.33,1.134-1.708,2.12-1.119.578.605.265-.206.774-.054.028-.032.534-.148.708-.05.641.445.3.836-.423.8-.538.915-.288.7-.1.059-.113.44-.738-.1Zm281.847.576-.712.423-.029-.412-.048,0c-.085,0-.168-.009-.245-.009l-.258.153-.371.027-.851.138-.74-.239c-.72.027-1.439.046-2.133.064-1.278.034-2.49.066-3.686.141l-.059.142-.736.052-2.65.118-.937.225-.008-.116-.321.05-1.15.016-.178.106-.407-.072-2.721.192-.44.1-.558-.03-.387.093-2.018.072-.557.109h-.986l-.962.137-.763.053c-1.13.08-2.254.225-3.4.378l-.693.119-1.132.151-.4.028c-2.726.33-5.479.728-8.295,1.14l-.473.033a4.893,4.893,0,0,1-.948.137l-.271.088-.108.008-6.749,1.1-.037,0-.151.22-.791.688-1.7,2.335-.3.738-1.128,1.3-.182.264-.158.706-1.442,2.128-.757,1.1-2,2.979-1.723,3.123-.568.806-.574,1.047-.515.523-.74,1.411-.29.953-1.15,1.717-.346.78.029.419-.285.222-.3,1.028-.638,1.275.306.267-.53.613-.9,2.258-.325,1.28-.444,1.073.034.491-1.17,2.66-.163.727-.61,1.15-.249,1.321-1.3,3.064-.143,1.854-.394,1.528-.329,1.376-.431,1.138-.477.246-.112.27-.691,1.589-1.184,1.272-.9-.314-.427-.372-.382-1.948.8-2.453,1.244-2.848.249-.842-.142.009-.074-1.065.278-.019.021-.036.036-.377.234-.649.132-1.15.308-.642.128-.148.208-.432.128-.311-.042-.589.224-.394.346-.4-.007-.1.192-.114.114-.133.432-.915.342-.835.18-.516.59-1.192.048-.274.385-.843c1.22-2.952,2.681-6.045,4.592-9.732l.465-1.371.48-.8.492-.715.865-1.522.8-1.289.488-1.018.019-.03,1.507-2.253.25-.44,3.429-5.457.455-.845.6-.618a.7.7,0,0,1,.142-.187l.764-1.382.342-.395.109-.426.632-.731-.934,0-3.419.581-.823.27-2.154.292-.9.206-.219.016-3.208.633-.2.081-1.9.457-.28.406-.614.043-2.845.674-1.534.73-.727.275-.87.13-.617.3-1.481.663c-1.543.685-2.191,1.014-2.54,1.185a2.555,2.555,0,0,1-.961.329c-.388.075-1.111.215-2.754.618l-.041.01-.069,0-.421.091-2.727.875-2.165,1.049-1.621.955-1.6.761-.482.1-1.652.757-2.544.179-.97-.689-.091-.08-1.08-.364-.1-1.5-.17-.415.517-.6L245.3,57.2l.947-.561.264.111.11-.008.288-.173.788-.506,1.718-.473L251.55,54.4l1.41-.421.44.114,1.151-.263.9-.348.306-.044.621-.615.992-.3.427.372.054,0,.931-.724.881-.31.7-.05.024.347.681-.048.321-.371.787-.056,2.776-.668.074.126c3.2-.847,6.424-1.619,9.462-2.338l5.968-1.757L283.116,47c2.817-.54,5.73-1.1,8.674-1.584l.046,0,.04,0c.036-.039.071-.073.1-.108l.029-.542.274-.316.262-.2.115-.069.037-.145-.025-.366.692-.25,3.157-4.088.954-1.243.245-.954.9-.537L300.7,34.1l.686-.653.417-.7,1.465-1.85,1.086-.8-.013-.189.172-.408.633-.376.528-.475,3.408-3.939,1.762-1.514,1.1-1.35.669-.469.239-.277.1-.087-.007-.1.527-.61.214.186.438-.182,1.021-.978.313-.361.128-.009a9.475,9.475,0,0,0,.716-.642c.145-.139.295-.282.458-.429l.046-.178.506-.586.194.081,3.917-3.318,2.223-1.681-.01-.144.529-.611.555-.039,1.082-.8.116-.134.238-.207.5-.753,1.322-.395,2.929-1.976a1.314,1.314,0,0,1,.818-.621,2.588,2.588,0,0,1,2.128-1.33l.45-.162a1.038,1.038,0,0,0,.248-.148,1.31,1.31,0,0,1,.627-.281l1.535-.878.862-.588.522-.114,2-.9.308-.123A33.876,33.876,0,0,1,344.718.577a.785.785,0,0,1,.637-.347,2.661,2.661,0,0,1,.268,0c.068,0,.132,0,.182,0l.036,0,.143-.1.192.025a2.419,2.419,0,0,0,.442.011l-.006-.1L347.493,0l.144.1c.012.008.025.017.09.013s.114-.015.171-.026a2.145,2.145,0,0,1,.252-.033,1,1,0,0,1,.331.028,17.791,17.791,0,0,1,1.944.13L350.892.1l.892.2.23.132.879.252.288.375.33.188.059-.069.829.723-.222.257v.005l.188.389.127.828.5,1.032.013.2a1.346,1.346,0,0,1,.319.683,1.319,1.319,0,0,0,.064.22l.04.046.029.06a1.8,1.8,0,0,1,.034,1.923l-.019.08a2.468,2.468,0,0,1-1.28,1.952,1.177,1.177,0,0,1-.478.134,1.812,1.812,0,0,1-1.626-1.123l-.009-.049-.011-.047c-.088-.372-.208-.59-.366-.671l-.312-.161.045-.351a1.518,1.518,0,0,0,0-.2A1.108,1.108,0,0,1,351.83,6.1a.966.966,0,0,0-.071-.5c-.013-.045-.026-.09-.039-.133l-.027-.1V5.351c-.024-.039-.064-.1-.091-.132a1.383,1.383,0,0,1-.322-1.261,1.437,1.437,0,0,1-.309-.471l-.048-.115.012-.124.005-.056a1.109,1.109,0,0,1-.975-.378l-.71.232-.521.037-1.12-.13h-.023a2.323,2.323,0,0,1-.425-.018c-.047-.006-.112-.012-.135-.012l-.183.013-.146-.11a1.014,1.014,0,0,0-.683-.1l-.256.018-.276.019a3.683,3.683,0,0,1-.393.009l-.042,0-.04-.009a.76.76,0,0,0-.2-.012,2.657,2.657,0,0,0-.713.21c-.082.032-.165.064-.247.094h-.016l-1.051.344-1.249.622-.58-.087a.635.635,0,0,1-.128.04l-.163.072.114.2-1.277.381-.169.012a48.7,48.7,0,0,0-4.744,2.573l-.072.175-.642.294-.11.108a1.836,1.836,0,0,1-1.156.675l-.07.005-.6.356-.292.4-.291.606-1.165.649-.4.194-.645.111-.191.133-.53.612.03.432-.946.066-.008-.013c-.871.654-1.769,1.333-2.644,2.055l-.252.219-1.593,1.461-.807.519a.44.44,0,0,1-.056.04l-.343.405-.039.03L320,18.12l-.246.214-.317.294-1.576,1.521-.4.31-1.177,1.076-.564.878-1.226,1.1-.322.3L312.88,25l-.458.234-1.361,1.355-1.3,1.509-.4.307-.927,1.072-1.816,2.173-.637.663-.52.6-1.524,1.618L302.922,36l-.488.47-.516.238-2.42,2.8-1.4,1.922-.583.6-1.124,1.521-.913,1.2c.132-.018.265-.034.4-.049l.325-.376.255.223.047-.02.418-.115.817-.057,1.117-.366.736.04.19.079.077.02c2.365-.368,4.832-.684,7.222-.986l1.09-.357,1.8-.2,2.36-.027c2.1-.212,4.486-.452,6.81-.618l.215-.09,1.33-.019,2.793-.2.144.06c1.048-.074,2.13-.151,3.236-.165l.12-.072.919-.065.813.012,2.852-.2.693-.128.383.1.266.153c1.807-.062,3.667-.124,5.506-.123l.274-.09.847.011,1-.272.683-.048.272.07.482.086.411-.029.463-.193.562.1.169.148.553-.039.185.161.989.1,1.027-.073.548.04,1.266.152.2-.154,2.7.331a1.094,1.094,0,0,1,.234.041l.027.007.656-.046a1.865,1.865,0,0,1,.582.029l1.129-.08.286.119.151-.011.313.056,6.771.421.535-.037.01.138.137-.01.031.433.073.064.069.986-.491.035a.791.791,0,0,1-.349.094l-.028,0-.028,0c-1.375-.056-2.584-.163-3.651-.257-.4-.035-.775-.07-1.145-.1l-.24.017a.77.77,0,0,1-.4-.062l-5.144-.314-.45.032a.578.578,0,0,1-.281-.05l-.166.012-1.287-.053c-1.97-.108-3.995-.1-6.559-.1ZM528,34.855l-.786.381-.594.244-.271.132-1.4,1.131-.4.657-.483.034-.139.082c-.45.347-.929.652-1.393.947-.143.092-.279.178-.413.265l-.063.072-.494.332-.364.316-.254.018-1.888,1.12-.086.208-.438.143-.6.354-.936.7L514.43,43.3c-.258.153-.521.318-.776.477-.5.314-1.024.639-1.55.914l-.186.215-3.368,1.926-.625.547-.176-.229-.414.307-.845.2-.57.342-.077.006c-.842.462-1.7.86-2.52,1.248l-.989.621-2.112,1.205-.63.2-.789.19-1.166.436-.641.11-.148.088-.308.268L495.5,52.7l-.115.008a16.6,16.6,0,0,1-2.565.779l-.186.214-.42.115v.014l-1.49.408-.384-.1-.7.313-1.88-.185-1.755-.733-.877-1.068-.452-.975-.3-1.046-.094-1.343.009-.02-.011-.02-.047-.672.388-1.9.439-.9.466-1.291.408-.805.1-.113.175-.592.4-.385.15-.429.417-.735.285-.329.71-.386.256-.372.527-.271.513-.445.114-.068.625-.648.532-.479.418-.7.271-.313.337-.47.368-.319.322-.133.063-.111.425-.492.633-.291.273-.132.247-.209c1.351-1.141,2.745-2.321,4.229-3.341l.115-.133.738-.6.959-.45.828-.641.506-.338.292-.121.951-.206c.706-.316,1.432-.639,2.159-.9l.656-.428.74-.052.555-.231.3.17a11.7,11.7,0,0,1,1.288-.043l.456-.189.1.04.134-.165.433.111,1-.07-.125.3.114.193.445.186.114.1.025.017a2.358,2.358,0,0,1,.78.74l.319.078.709-.05-.719.832.005.079.111.341-.151.7-.089.154.023.342-.23,1.2-.551,1.058-.717.829-.762.569-.61.473-2.308,1.408-.362.335-.489.179a45.334,45.334,0,0,1-4.687,3.237l-.062.152-2.05,1.178-.863.7-1.81.923-1.317.6-1.911.5-1.162.154-.6.042-.714-.3-.36-.747.239-.419.438-1.06L492.23,41.4l1.045-.491.716-.05.552.117.495.088.8-.056.729-.176.912-.427.1-.007.075-.131,2.083-.89,1.766-1.013.773-.492.335-.467.816-.383.123-.3,1.1-.453.2-.232.866-.772,2.88-2.813.168-.243.1-.473.129-.227.194-.756-.056-.1L509,30.388l-.232-.26L508.409,30l-.394-.083-.654.046-.54.117-.26-.046a22.371,22.371,0,0,0-4.19,2.007l-.493.281-.725.43-.158.183-.528.489-.1-.018-.566.235-.185.215-.218.015-1.314.845-.664.629-.516.6-.754.287-.2.115c-.381.3-.738.63-1.112.979-.16.149-.324.3-.5.456l-.3.424-.856.913-.458.53-.7.739-.881,1.017-.9,1.191-.161.186-.351.62-.458.765-.636.735-.458.838.029.407-.434.5-.142.218.017.239-.252.445.056,1.8-.04.047a1.847,1.847,0,0,0,.136.808c.064.066.116.124.158.17.192.212.227.251,1.581.584l1.116.182.807-.057.973-.2,4.9-1.447.935-.48,2.567-1.068.52-.377.368-.218.156-.011,4.024-2.027.243-.017.417-.28.653-.195,2.215-.99.26-.085c1.388-.7,2.291-1.234,3.247-1.8.7-.41,1.414-.835,2.383-1.365l.037-.019,1.3-.581.048-.113.577-.342,1.23-.511.96-.488-.022-.307.589-.042.554-.329.051-.122,3.753-2.689.347-.094a15.194,15.194,0,0,0,1.311-1.048.737.737,0,0,1,.485-.227.779.779,0,0,1,.153,0l.24-.208.786.139ZM230.005,55.021l-.24.208a.7.7,0,0,0-.152,0,.747.747,0,0,0-.486.227,14.808,14.808,0,0,1-1.311,1.047l-.347.1-3.759,2.688-.051.122-.554.329-.589.042.021.308-.959.487-1.23.511-.577.342-.048.114-1.3.581-.035.017c-.969.53-1.688.955-2.384,1.365-.955.565-1.858,1.1-3.246,1.8l-.261.085-2.214.99-.654.195-.416.28-.244.017-4.023,2.027-.156.011-.368.218-.52.377-2.576,1.069-.934.479-4.9,1.446-.973.2-.807.056-1.116-.182c-1.354-.332-1.39-.371-1.581-.583-.042-.047-.094-.1-.158-.17a1.863,1.863,0,0,1-.137-.808l.041-.048-.052-1.792.253-.444-.017-.24.141-.219.433-.5-.028-.407.458-.838.635-.734.458-.766.352-.62.16-.185.9-1.191.879-1.017.705-.74.458-.529.856-.913.3-.425c.171-.154.334-.306.494-.456.375-.349.732-.679,1.112-.979l.2-.115.754-.287.515-.6.664-.629,1.315-.845.217-.015.186-.215.566-.235.1.018.528-.489.158-.182.724-.431c.152-.085.317-.18.493-.281a22.462,22.462,0,0,1,4.19-2.007l.26.046.541-.116.654-.046.393.083.355.124.237.247.128.266.056.1-.194.755-.129.228-.1.471-.167.243-2.881,2.813-.865.772-.2.231-1.094.454-.124.3-.815.383-.335.467-.774.492-1.766,1.013-2.084.89L200.9,62l-.1.007-.912.428-.73.175-.8.056-.493-.088-.554-.117-.715.05L195.552,63l-1.031,1.107-.439,1.06-.238.419.36.747.713.3.6-.043,1.161-.154,1.912-.5,1.317-.6,1.809-.923.864-.7,2.046-1.175.063-.152a45.178,45.178,0,0,0,4.687-3.237l.489-.178.362-.336,2.308-1.407.61-.473.762-.57.717-.829.551-1.058.23-1.2-.024-.341.09-.154.151-.7-.111-.341,0-.077.72-.833-.709.05-.319-.078a2.366,2.366,0,0,0-.78-.739l-.025-.018-.114-.1-.445-.187-.114-.193.125-.3-1,.07-.433-.111-.138.159-.1-.041-.456.189a11.464,11.464,0,0,0-1.288.044l-.3-.171-.555.231-.739.052-.656.429c-.728.259-1.453.582-2.159.9l-.951.206-.293.121-.506.338-.828.642-.958.45-.738.6-.115.133c-1.484,1.019-2.879,2.2-4.23,3.341l-.247.208-.272.132-.634.292-.424.491-.064.111-.321.134-.368.318-.337.47-.271.314-.419.7-.532.478-.625.649-.114.067-.512.445-.528.272-.255.371-.71.387-.285.329-.391.69-.555.33-.07.081a.7.7,0,0,0-.3.2l-1.03,1.039-.047.052-.661.464-.208.241-.922.784-.813.482-.3.29-.345.024-.28.436-1.178.958c-.027.012-.054.025-.079.039l-.069.005-2.449,1.9-.258.126-.294.1-2.34,1.46-.291.021-.193.223-.414.19-.111.037a2.289,2.289,0,0,1-.4.113l-.217-.069-.244-.125-.234-.254-.142-.165-.06-.252a3.207,3.207,0,0,1,0-.6l.27-.535-.114-.2.037-.177.012-.014.346-.61-.037-.533.354-1,.613-1.039-.047-.672c.074-.194.154-.388.231-.577a9.386,9.386,0,0,0,.56-1.659l.138-.434a27.272,27.272,0,0,1,.965-2.7l.073-.084.411-1.089.04-.751-.279-.679-.735-.392-.2-.1a1.033,1.033,0,0,0-.5-.359l-.031-.012a5.611,5.611,0,0,0-2.239-.319,5.327,5.327,0,0,0-1.711.423l-.256.018-1.613.545-.706.211-.632.548-.117.135-.379.1-.24.375-.5.364-.835.965c-.685.511-1.393,1.037-2.093,1.624l-.2.08-.818.636-1.109.658-.6.693-.1.183-2.069,1.745-.83.528-.329.2-.415.48-.235.2-.516.52-2.015,1.444-.526.455-.229.134-.807.519-.289.334-.41.4-.21.3-.476.246-.2.305-.1.061-.391.451-.7.442-.1.007-.054-.022-.11-.14.05-.708.411-.992.092-.726.38-1.23.694-1.921.335-1.291.626-1.512-.038-.542.423-.9.145-.086.118-.287c.532-1.128,1.151-2.219,1.751-3.276l.134-.247.2-.226.057-.325c.609-1,1.158-2.009,1.692-2.986l2.811-4.879.53-.541.632-1.277.9-1.431.109-.424.5-.778,1.049-1.213.037-.512,1.455-1.97.562-1.029.331-.516.349-.327.279-.579.622-1.134-.018-.26,1.979-3.141.636.056c.814.074,1.58.138,2.325.27l1,.194.854.356.581.123,1.307.045,1.017.3.3.171.045,0,.145.191.582.15.512.153.532.284L181.8,39l.149.038a1.873,1.873,0,0,0,.442.212l.022.008.034.029.945.61.264.11.636.5a.708.708,0,0,0,.17.2l.488.488.469.608.05.044.1.178.56,1.194.515.879a1.237,1.237,0,0,0,.133.476l.108.262.973,1.014.61-1.474-.124-.108c0-.089,0-.181-.011-.271l-.014-.207-.156-.136-.008-.007-.1-.5-.456-1.291-.195-.38.036-.669-.422-.368-.369-.1-.694-.857-.1-.027-.188-.13c-.119-.086-.241-.178-.369-.276a8.531,8.531,0,0,0-.719-.506l-.055-.1-.513-.448-.312.022-.435-.294-.261-.375-1.054-.441-.441-.056-.035-.03-.391-.224-.179.012-.668-.255-.018-.251-.259.018-.177-.3-.374.222-1.537-.471-.371-.324-.171.2c-.169-.047-.332-.08-.492-.109l-.439-.317-.42-.072-1.479-.1-.6-.252-.644.045.175-.375.418-.853.491-.927-.058-.05,2.352-3.934.682-.576,1.44-1.589.6-.767,1.565-2.426.925-2.853-.359-1.177-.971-.848-.828.5-.057-.237-1.072.932.026.377-.165.291-.339.527-.925.916-.305.577-.639.617-.7.227-.159.6.077.324-.116.18-.12.471-.106.254-.234.645-.274.59-.728,1.065-.14.243-.205.317-.157.378-.5.491-.072.4-.1.289-.09.054-.3.535-.431.644-.468.781-.009.023-.1.055-.266.413-.075.148-.23.266-.386.833.009.13-.125.144-.155.487-.046.263-.07.17-.462-.033-.85-.151-.688-.028-.541.038-1.112.211L165.28,34.1l-.645.192-1.268-.011-.017-.245-.845.059-.222-.194-2.305.163-1.989.349-5.1.36.012.177-1.033.156-.2-.178-.244.017.567-.809,2.511-3.123.643-.524,2.189-2.393.045-.474.251-.411.412-.76.571-.594,1.129-.847-.2-1.375-.858-1.29-1.458.2-.631.729-.3.8-.2.227,0,.031h-.012l-.361.314-.5.649-.953.714-.332.586-.053.2-.251.41-.288.334-.505.165-.295.52.03.429-.257.3.013.182-.552.88-.19.149-.469.7-.323.374-.752,1.169-.195.225-1.685,2.7-.16.184-.9.063-.98.139-1.086.076-.071.082a6.325,6.325,0,0,0-.827.183l-.521-.038-.264.109-1.089.207-.48.034-.423.205-.113.064-1.59.438-.5.035-.064.074-.126.009-.24-.062-1.315.242-.317.022-.085.1-1.651.3-.159.011-.161.095-2.613.509-.408-.107-1.284.173-1.1.581a19.448,19.448,0,0,0-4.081,1.59l-.3.021-.135.157c-.023.026-.045.053-.065.08h-.007v.006a1.267,1.267,0,0,0-.121.195l-.088.007-.2.959.161.945.829.813,1.877.271,1.5-.413.636-.291,1.092-.916h.849l.95-.229.332-.2.569-.372,3.388-1.266.512-.166,1.743-.4.606-.111,2.664-.535,2.047-.283.851-.2.737-.126-.02.081-.144.349-.155.065-.362.564.007.1-.257.3,0,.069-.261.3-.433.257-1.557,2.448-.047.268-.207.288-.19.149-1.173,1.529.025.367-.774,1.186-.089.006-.232.408-.064.074-.024.043a7.473,7.473,0,0,1-.694,1.087l-.151.174-.988,1.512-.333.308-2.3,3.866-.545.551-.224.543-.156.121-.8,1.19-.033.266-.216.128-1.16,1.774.022.308-.257.3.012.18-.078.121-.128.148-.232.36-.085.216-.009.035a.948.948,0,0,1-.114.16,2.408,2.408,0,0,0-.182.255l-.053.061-.268.389-.1.167-.19.145-.422.656-.382.67-.493.792-.357.63a8.006,8.006,0,0,0-.6.848c-.071.114-.139.218-.205.316l-.251.291-.065.253-.713,1.158-.519.349-.178.556-.039.222-.233.381-.538.554-.526.52-.055.136-.3.28-.308.543-.174.5-.333.586-.367.491-.25.388-.13.5-.092.517-.08.143-.611,1.3-.357.556-.125.218-.316.441-.212.374.02.29-.045.053-.227.549-.128.614.008.11a8.6,8.6,0,0,0-.47,2.162l0,.031,0,.026a3.061,3.061,0,0,1-.012.332,2.557,2.557,0,0,0,.042.9l.2.667.36.613.71.252.312.056.637.135.252-.1.895.006,2.588-.975,2.014-.886.234-.271.136-.11.775-.055.588-.193.09-.35.1-.026.774-.544.763-.807.637-.378.192-.014,1.03-.531.692-.411,1.269-.794.26-.154.4.029.729-.144.291-.222.528-.474.31-.086.434-.3.335-.326.2-.064.69-.335.688-.285.593-.609.257-.125,1.181-.587.881-.634.781-.5.2-.226.4-.267L146,71.5l.668-.253.765-.417,1.025-.644.737-.545.537-.319,1.1-.85-.169.959-.019.67-.137.463-.162.321-.076.178-.347,1.079-.286.614-.511,1.064-.114.544-.281,1.1-.086,1.049.249.845.641.559.9-.063.267-.309,1.084-.138.806-.222.781-.579.866-.514.9.231-.049-.694.205-.238.409-.274.339-.239,1.605-1.321,1.721-1.681,2.079-2.029.954-1.032.707-.195.538-.711.285-.331.083-.163.32-.022.386-.631,3.484-2.247.208-.24.064-.051a3.251,3.251,0,0,1,.6-.408l.335-.163,1.351-.763.458-.455.55-.326.159-.184.472-.409.654-.419.471-.173,1.029-.647a5.518,5.518,0,0,1,1.416-.592l.01.008-.011.159-.081.195.02.137a3.439,3.439,0,0,1-.544,2.189l-.032.065-.207,1.18c-.107.417-.244.853-.389,1.315a20.176,20.176,0,0,0-.548,1.982l-.434.959-.078.818-.089.151-.107.26-.414.561-.051.291-.221.318-.075.181-.4.238-.181.439.125.632-.031.423.017,1.3.025,1.49,1.417,1.839-.024-.349.349.242.5-.121a2.207,2.207,0,0,0,.6.013,2.064,2.064,0,0,0,.708-.233l.276-.12.674-.116.559-.2.6-.357.1-.08.143-.01.339-.262.389-.376.177-.137,1.028-.9.7-.413.093-.108.411-.129.55-.227.294-.34.661-.465.218-.252.333-.32.243-.144.509-.4.168-.332.11-.065.217-.337.151-.14.221-.015.7-.714a26.373,26.373,0,0,0,2.358-2.125l.45-.391-.11.31-.439.9-.389,1.9.047.673.012.019-.009.021.094,1.342L188,73.1l.452.975.876,1.068,1.756.733,1.88.188.7-.313.384.1,1.49-.407v-.014l.421-.116.185-.214a16.645,16.645,0,0,0,2.566-.779l.116-.008,1.039-.319.307-.267.148-.091.641-.111,1.166-.436.788-.19.631-.2,2.114-1.2.988-.621c.825-.388,1.678-.786,2.52-1.248l.078-.006.569-.342.845-.2.414-.307.176.23.625-.548,3.369-1.926.185-.215c.526-.275,1.046-.6,1.55-.914.255-.159.518-.324.776-.477l2.571-1.307.936-.7.6-.354.439-.144.085-.208,1.888-1.119.256-.018.363-.317.495-.332.062-.072c.134-.087.27-.173.413-.265.464-.3.943-.6,1.393-.947l.139-.082.484-.034.4-.657,1.4-1.135.271-.132.594-.243.786-.382-.536-1.3Zm-81,12.46-.2.138-.43.03.019.266-1.509.926-.907.4-.846.351-.849.546-.265.37-1.076.638-.789.4-.5.261-.669.469-3.076,1.719-.294.1-.7.49-1.82.978-.307.022-.193.223-.082.006-.4.167L133.7,76l-.183.362-.354.024.016.235-.977.5-1.732,1.028-.1.039-.333.024-.4.281-.51.212-.615.122-.444.344-.485.224-.588.312-1.3.4-.137.24-.222.092-1.186.353-.22.053.263-.918.006-.854.475-.913.065-.491-.027-.394.272-1.322.826-1.236.473-.791.462-1.285.641-1.052.109-.511.313-.62.6-.763.313-.362,1.352-1.637,1.029-1.341,2.96-4.779.04-.065.219-.853.923-1.513.171-.494.136-.211.064-.074.377-.584.49-.568.466-.615.286-.415.439-.886.339-.6.343-.4.188-.457,1.231-1.788.444-.664,1.988-3.116.1-.122,1.1-1.422.6-.848.921-1.661L145.87,43l.06-.237c.287-.46.64-.94.984-1.406l.435-.419.2-.491c.146-.238.328-.483.52-.741.15-.2.3-.411.451-.623l3.235-.228,1.008-.489.61-.043-.019-.26.639-.411.648-.045-.027-.379.118-.061.387-.084c2.19-.222,4.42-.379,6.58-.532.141-.01.288-.006.457,0a5.689,5.689,0,0,0,.569,0l.273.072.352-.115a13,13,0,0,1,1.529-.044l.789.076.294.08.464-.112.543.023,1.321.126.312-.067-.229.492-.474,1.305-.221.46-.27.44-.519.533-.347.269-.044.619-.2.416-.328.648-.541.547-.266.737-.1.235-.164.254c-1.153,1.843-2.345,3.747-3.452,5.62l-.474.4L159.916,51.8c-.368.574-.672,1.146-.966,1.7l-.7.811-.3.524-.226.708-.394.66-.338.471-.191.461-.717,1.329-.1.007-.225.545-.1.179L155,60.216l-.293.122-.087.341-.078.09-.065.365-.434,1.049-1,1.454-.253.521-.234.42-.433.723-.252.476-.445-.057-.349.4-.21.194-.691.167.011.153-.912.612Zm335.57-33.672-.648-.659-.4.367-.119-1.7.193-.115,0-.022-.085-.4-.171-.757-.013-.013-.682.141-.923.477-.469.133-.5-.027-.67.364-.466.113-2.667.733c-1.239.632-2.274,1.246-2.667,1.479l-.33.2-.318.367-2.714,1.685-.93.654-.394.455-1.317.819-.3.207-.593.533-.933.724-.382.516-1.946,1.484L461.42,44.2l-.38.67-.491.407-.825,1.025-.823.873-.3.184-.464.335-.359.415-.066.16-.566.573-.572.734-.344.4-.262.228-.575.665-.263.538-.292.254-.24.348-.666.693-1.041,1.209-.293.555-.245.355-.261.568-.107.411-.065.157-.139.435-.476.55-1.086.945-.828.674-1.039-.157-.6-.734-.007-.09a1.263,1.263,0,0,1-.2-.879l-.03-.424.174-.2.04-.234-.168-.519.222-.64.231-.9.453-.759-.006-.09-.256.083-.247.1-1.155.147-.174.146-.522.4-.244-.22-.6.184-2.322.94-.653.12-.367.09-.889.345-.654.117-.507.109-.027,0a.791.791,0,0,1-.349.094l-.1.007-.772.186-1.06.292-.581.041c-.246.038-.478.082-.7.125a9.348,9.348,0,0,1-1.011.155c-.073,0-.141.009-.206.007l-.223.133-.288-.12a.946.946,0,0,1-.21-.044l-.386.027-.441-.51-.146-.355v-.012l-.074-.064-.01-.156a2.217,2.217,0,0,1-.144-1.172l.041-.591.134-.236c.005-.033.009-.066.012-.1a2.029,2.029,0,0,1,.177-.7l-.005-.07.087-.338.294-.631.056-.317.2-.305a.954.954,0,0,1,.079-.168l.1-.253c.183-.443.386-.87.582-1.284.188-.4.382-.8.553-1.217l.128-.4.205-.317.268-.574.054-.214.285-.612.042-.442.225-.4-.017-.25-.1.007-.811.381-1.354.561-.206.161-.5.183-.623.369-1.646,1.013-1.212.863-.385.229-3.843,2.6-.413.478-.1.007-.11.172-2.047,1.326-.675.3-.1.116L419.919,55.2l-.137.157-.109.064-.273.4h-.006l0,.038-.807.43-.267.309-.239.017-.236.218-.109.065-.064.074-.234.139-.2.084-.166.1-.423.489-.392.128-.391.143-.294.228-.214.247-.674.4-1.04.214-.115.06v.007l-.733.569-.169-.147-.244.1h-.013l-.385.445-.375-.327-2.377-.087,0-.015-.032,0-.574-.24L408,59.2c-.03,0-.057-.008-.081-.012l-.252.29-.205-.294-.148.01-.017-.247-.309-.444-.009-.138a4.327,4.327,0,0,1,0-.965l-.028-.4.129-1.344.119-.673.273-.391.144-.485.079-.3.338-.47.121-.293.453-.6.688-1.435.178-.6.181-.276-.25.194-.537.319-.737.545-1.025.644-.765.417-.69.257-.884.524-.4.267-.2.226-.781.5-.881.634-1.182.587-.257.125-.594.61-.688.285-.688.335-.2.064-.335.325-.434.305-.31.085-.528.474-.292.222-.729.144-.4-.029-.26.155-1.269.794-.692.41-1.029.532-.181.013-.637.378-.762.807-.774.544-.1.026-.09.35-.588.193-.774.055-.137.11-.233.27-2.014.886-2.589.976-.894-.006-.253.1-.636-.135-.313-.056-.709-.252-.361-.613-.2-.667a2.584,2.584,0,0,1-.041-.9c.009-.111.013-.222.012-.332l0-.031,0-.031a8.612,8.612,0,0,1,.47-2.162l-.008-.11.128-.613.227-.549.046-.052L381.2,58l.107-.19-1.093.139-.168.146-.522.4-.248-.217-.6.184-2.322.94-.653.119-.363.088-.892.346-.655.119-.507.109-.027,0a.791.791,0,0,1-.349.094l-.1.007-.772.185-1.06.293-.581.041c-.246.038-.478.082-.7.125a9.346,9.346,0,0,1-1.011.154,1.844,1.844,0,0,1-.206.008l-.223.132-.288-.119a.966.966,0,0,1-.211-.044l-.386.027-.441-.51-.145-.355v-.012l-.074-.064-.01-.156a2.217,2.217,0,0,1-.144-1.172l.041-.591.134-.236q.008-.05.012-.1a2.029,2.029,0,0,1,.177-.7l-.005-.07.087-.338.294-.631.056-.317.2-.305a.952.952,0,0,1,.079-.168l.1-.254c.183-.442.386-.87.582-1.283.188-.4.382-.806.553-1.217l.128-.4.2-.317.268-.574.054-.214.285-.612.042-.442.225-.4-.017-.25-.1.007-.811.38-1.354.562-.206.161-.5.183-.624.365L364.8,52.081l-1.211.862-.385.229-3.849,2.6-.413.479-.1.007-.11.171-2.045,1.328-.675.3-.1.119L353.332,59.9l-.137.157-.108.064-.274.4h0l0,.034-.806.432-.267.309-.239.017-.236.218-.109.065-.064.074-.231.139-.2.084-.166.1-.423.489-.392.129-.391.143-.294.228-.214.247-.673.4-1.041.214-.115.059V63.9l-.733.57-.169-.148-.244.1h-.013l-.385.445-.375-.327-2.377-.087,0-.017-.032,0-.574-.24-.623-.318c-.03,0-.057-.008-.082-.012l-.252.29-.209-.294-.15.01-.017-.246-.308-.444-.01-.139a4.323,4.323,0,0,1,0-.965l-.029-.4.13-1.344.119-.673.273-.391.144-.484.079-.3.338-.47.12-.292.454-.6.688-1.434.177-.6.412-.64.277-.454.226-.706.42-.734.281-.409.351-.337.051-.122.154-.178.206-.338-.034-.479.292-.02.2-.377.878-1.1.233-.482.107-.191.022-.053.075-.588-.055-.783.087-.409-.139-.339-.033-.477.263-.637.428-.411.707-1.048.775-.6.809-.057.707.491.008.122a1.8,1.8,0,0,1,.346,1l.05.044.27,1.431-.179,1.02-.365.689-.615.784-.476,1.318-.522.516-.556.644-.4.544-.213.186-.035.083-.311.452-.324.312-.109.425-.269.019L345.685,55l-.116.276-.211.417-.27.312c-.293.48-.593.975-.819,1.446l-.012.023-.616,1.009a6.67,6.67,0,0,1-.369.731l-.193.4-.032.423-.1.8-.3.572-.046.476-.03.035a.281.281,0,0,0,.01.073,1.1,1.1,0,0,0,.318.014,10.092,10.092,0,0,0,2.815-.889l.437-.42.767-.135.97-.471.523-.171.512-.3c.933-.482,1.781-.952,2.664-1.474l.4-.387.53-.274.591-.315.324-.186.528-.611,1.682-.817a.992.992,0,0,1,.146-.128l.138-.243.587-.214,1.356-.941.332-.483.248-.081.084-.147.373-.262.237-.274,1.007-.367,1.906-1.343.6-.537.837-.533.766-.885.525-.353.622-.406.8-.4.3-.208.566-.412,1.636-.751.235-.139.529-.347.286-.33.092-.223.492-.293.27.112a6.484,6.484,0,0,1,.889-.486l.05-.058.856-.456.4.1a1.1,1.1,0,0,1,.491.285l.564.146.661.338.12,1.718-.429-.178-.13.312-.524.682-.22.418.031.44-.618.961-.106.332-.22.432-.307.5-.1.167-.218.681-.258.713-.353.478-.045.252-.494.872-.043.239-.226.62-.042.444-.368.792-.168.194c-.282.96-.187,1.19-.165,1.226l.017.012.021.019a1.67,1.67,0,0,0,1.113.4l.67.021.569-.04.419.04.442-.032a12.864,12.864,0,0,0,1.966-.355l.2-.045.093-.107.552-.039.995-.363.388.05,1.258-.264.092-.107.2-.014.39-.16.948-.142.638-.109a.783.783,0,0,1,.362-.1l.028,0,.506-.121.636.205.093.121.6-1.295.081-.143.092-.517.129-.5.238-.381.367-.491.333-.586.173-.5.308-.543.3-.28.055-.136.525-.521.539-.553.232-.381.04-.222.178-.557.519-.348.713-1.158.064-.254.252-.29c.066-.1.134-.2.2-.317a8.223,8.223,0,0,1,.6-.848l.357-.629.494-.794.379-.667.423-.656.19-.145.1-.167.268-.389.052-.061a2.573,2.573,0,0,1,.183-.255.949.949,0,0,0,.114-.16l.009-.035.085-.216.231-.36.129-.148.077-.121-.012-.18.257-.3-.022-.308,1.16-1.774.215-.128.034-.266.8-1.191.156-.12.224-.543.545-.551,2.3-3.866.333-.31.988-1.511.151-.174a7.475,7.475,0,0,0,.694-1.087l.025-.043.064-.074.231-.408.089-.006.774-1.186-.025-.368,1.173-1.528.19-.149.208-.288.047-.268,1.557-2.448.433-.257.261-.3-.005-.069.257-.3-.007-.1.361-.564.155-.065.144-.349.021-.081-.737.126-.851.2-2.047.282-2.664.535-.606.112-1.745.4-.511.167L393.1,22.7l-.57.372-.331.2-.949.229h-.85l-1.092.915-.636.292-1.5.413-1.878-.271-.829-.813-.161-.945.2-.959.088-.007a1.324,1.324,0,0,1,.121-.2v-.006h.007c.02-.027.042-.054.064-.08l.136-.157.3-.021a19.449,19.449,0,0,1,4.081-1.59l1.1-.582,1.284-.172.408.107,2.613-.509.16-.095.16-.011,1.65-.3.086-.1.317-.022,1.315-.242.239.062.127-.009.064-.074.5-.036,1.59-.437.113-.064.422-.2.481-.034,1.089-.207.264-.109.521.038a6.324,6.324,0,0,1,.827-.183l.071-.082,1.086-.076.98-.139.9-.063.16-.184,1.685-2.7.2-.225.751-1.169.324-.374.468-.7.19-.148.552-.88-.013-.182.257-.3-.03-.43.3-.52.5-.165.288-.334.25-.41.053-.2.332-.585.953-.715.5-.648.361-.315h.012l0-.031.2-.227.3-.8.631-.729,1.472-.207.858,1.29.2,1.374-1.129.847-.571.594-.411.76-.251.411L417,9.1l-2.2,2.388-.644.524-2.511,3.123-.567.81.244-.018.2.178,1.032-.156-.012-.177,5.1-.36,1.989-.349,2.305-.163.222.194.845-.059.017.245,1.268.012.646-.193,1.007.144,1.112-.212L427.6,15l.688.028.851.151.46.033.588.032,1.729.357.131-.009.562.1.955-.068.6.253,1.479.1.42.071.439.318a5.036,5.036,0,0,1,.492.109l.172-.2.371.324,1.537.471.375-.222.176.3.259-.019.018.252.668.255.179-.013.392.225.034.029.441.057,1.054.44.261.376.436.293.312-.022.514.448.055.1c.247.156.487.325.718.5.129.1.249.19.369.277l.187.129.1.027.694.858.369.095.421.368-.036.669.195.38.456,1.291.1.5.007.006.156.136.015.208c.006.09.012.181.01.271l.124.108-.609,1.475-.974-1.014-.107-.262a1.238,1.238,0,0,1-.134-.476l-.518-.881-.561-1.194-.105-.177-.05-.044-.468-.608-.489-.487a.7.7,0,0,1-.169-.2l-.637-.5-.264-.11-.945-.61-.034-.029-.022-.008a1.892,1.892,0,0,1-.442-.212l-.149-.038-.219-.094-.532-.284-.512-.153-.582-.15-.145-.191-.044,0-.3-.171-1.018-.3-1.307-.045-.581-.123-.854-.356-1-.194c-.745-.132-1.51-.2-2.325-.27-.317-.028-.644-.055-.97-.088l-.134.08-1.341-.141-.514-.029-.624.044-.52.112-1.321-.126-.543-.022-.464.111-.294-.08-.788-.075a12.79,12.79,0,0,0-1.529.043l-.352.115-.277-.071c-.207.015-.4.006-.569,0s-.315-.008-.457,0c-2.16.152-4.39.309-6.58.532l-.387.084-.118.06.027.379-.648.046-.639.41.019.261-.61.043-1.008.489-3.235.228c-.149.211-.3.424-.451.622-.192.259-.374.5-.52.742l-.2.491-.435.419c-.344.466-.7.945-.984,1.406l-.06.236-.929,1.231-.921,1.661-.6.848-1.1,1.422-.1.12L399.862,32.4l-.444.663-1.231,1.789-.188.457-.343.4-.339.6-.439.886-.286.415-.466.615-.49.567-.376.584-.064.074-.135.211-.171.495-.923,1.512-.219.853-.04.065-2.96,4.78-1,1.34-1.352,1.637-.313.363-.6.763-.313.619-.109.511-.641,1.052-.468,1.289-.473.791-.826,1.236-.279,1.323.028.4-.066.49-.475.912,0,.855-.264.917.221-.052L385,61.446l.222-.092.137-.24,1.3-.4.588-.312.486-.224.443-.344.615-.122.511-.216.4-.281.333-.024.1-.039,1.733-1.028.975-.489-.017-.238.354-.025.184-.361.409-.029.4-.168.082,0,.193-.224.307-.021,1.82-.978.7-.491.294-.1,3.075-1.719.669-.469.5-.26.789-.4,1.076-.639.266-.37.848-.545.847-.352.906-.4,1.509-.926-.019-.265.43-.031.2-.137.266-.232.912-.612-.011-.153.69-.166.21-.2.35-.4.574.075.18-.3-.034-.479.292-.021.2-.376.9-1.1.233-.482.108-.191.022-.053.075-.588-.055-.783.087-.409-.136-.337-.033-.477.263-.637.428-.412.707-1.047.775-.6.809-.057.707.491.008.121a1.807,1.807,0,0,1,.346,1l.05.044.27,1.431-.179,1.02-.365.689-.615.784-.476,1.318-.522.516-.556.644-.4.542-.213.187-.034.083-.312.452-.324.311-.109.426-.269.019-1.2,1.8-.117.276-.21.418-.27.312c-.293.479-.594.974-.819,1.445l-.012.023-.616,1.009a6.67,6.67,0,0,1-.369.731l-.194.4-.031.424-.1.794-.3.572-.046.482-.03.035a.314.314,0,0,0,.01.073,1.061,1.061,0,0,0,.318.014,10.091,10.091,0,0,0,2.815-.888l.437-.421.767-.131.969-.471.523-.171.511-.3c.933-.482,1.782-.951,2.664-1.474l.4-.386.53-.274.59-.316.32-.19.528-.61,1.682-.817a.886.886,0,0,1,.146-.128l.138-.244.587-.213,1.356-.942.332-.482.248-.081.084-.147.373-.262.237-.274,1.007-.368,1.907-1.342.6-.538.837-.532.766-.886.525-.352.621-.406.8-.4.3-.209.565-.413,1.636-.75.233-.14.531-.346.286-.331.092-.223.492-.293.27.112a6.492,6.492,0,0,1,.889-.487l.05-.057.855-.456.4.1a1.1,1.1,0,0,1,.491.286l.564.145.661.339.12,1.718-.429-.178-.13.311-.524.683-.22.418.031.44-.618.961-.106.331-.22.433-.307.5-.1.167-.218.681-.258.713-.353.478-.045.252-.5.871-.042.24-.226.62-.043.444-.367.791-.168.195c-.282.96-.187,1.19-.165,1.226l.016.012.022.018a1.669,1.669,0,0,0,1.113.4l.67.02.569-.04.419.04.442-.031a12.864,12.864,0,0,0,1.966-.355l.2-.045.093-.107.552-.039,1-.363.388.05,1.258-.264L445,52.05l.2-.014.39-.161.947-.141.639-.109a.783.783,0,0,1,.362-.1l.028,0,.506-.122.636.205.265.344.8-.723.159-.011.7-1.157.519-.868.164-.068.209-.506.374-1.169.443-.439.1-.376.786-1.163.179-.14.679-1.23-.021-.307,1.153-1.654.6-1.219.238-.42.273-.587.073-.283.177-.2.331-.554-.013-.19.533-1.053.826-.2.071-.1.12-.346a.917.917,0,0,1-.9-.932h0l-.015-.208.128-.148v-.013l.089-.345.036-.071-.371-.119-.052-.755.207-.239-.071-.221.494-.87-.805-.336,1.351-.371-.017-.246.5-.3.049,0,.257-.3.588-.042.551.041.055.007.6-.525.455.081.352-.025.681.6-.186.214a1.576,1.576,0,0,1,.467.625l.206.18-.112.441a5.1,5.1,0,0,1-1.169,2.783l.074.125-.978,1.449-.428.1-.46.588-.205.3-.26.748-.138.01-.075.126a9.171,9.171,0,0,1-.782,1.18.51.51,0,0,1-.195.209l-.219.386-.1.41-.269.56-.568,1.122-.366.5-.111.264-.371.731-.578,1.081.444-.031,1.161-1.267.2-.014.928-1.073,1.217-.87,1.067-.945.242-.28.1-.007,1.089-1,.073-.084,2.618-2.171.008.107.407-.316.379-.438.321-.105.485-.377.232-.268.138-.01,1.159-.815.506-.584.475-.369.97-.471.69-.725.819-.526,1.435-.6.559-.3A24.912,24.912,0,0,1,475.668,31l.4-.383L477.37,30l1.151-.478.178-.136.631-.412.765-.341.529-.273.924-.138a9.818,9.818,0,0,1,3.167-.727l.6-.248.455.4a2.982,2.982,0,0,1,.941.561.893.893,0,0,1,.284.393l.569.564-.014,2.123-.83,2.006-1.072.446Z" transform="translate(435 355)" stroke="rgba(0,0,0,0)" stroke-width="1" fill="url(#linear-gradient)"/>
  </g>
</svg>
