<svg xmlns="http://www.w3.org/2000/svg" xmlns:xlink="http://www.w3.org/1999/xlink" width="329.996" height="80" viewBox="0 0 329.996 80">
  <defs>
    <linearGradient id="linear-gradient" y1="1" x2="1" gradientUnits="objectBoundingBox">
      <stop offset="0" stop-color="#1450a0"/>
      <stop offset="0.448" stop-color="#b4a0dc"/>
      <stop offset="1" stop-color="#f0b4a0"/>
    </linearGradient>
  </defs>
  <g id="Group_36179" data-name="Group 36179" transform="translate(-22 -219)">
    <g id="Group_36175" data-name="Group 36175">
      <g id="Rectangle_23712" data-name="Rectangle 23712" transform="translate(25 219)" fill="none" stroke="#c8c8ca" stroke-width="1">
        <rect width="325" height="80" stroke="none"/>
        <rect x="0.5" y="0.5" width="324" height="79" fill="none"/>
      </g>
      <path id="Path_424385" data-name="Path 424385" d="M66.523,38.268l-.2-.338-.274-.088-.188-.164-.12.009L65.6,37.6a4.793,4.793,0,0,0-.51-.279l-.2-.229-.224.016-.137-.088-.049-.013a8.94,8.94,0,0,0-1.262-.182l-.182-.033-.425-.024-.189.062h-.017l-.29-.121-.35.068-.047,0-.392-.016-.369.026-.252.105-.079.006-.092-.081-.289.021-.12.071-.1.033c-.138.011-.275.034-.386.051s-.216.034-.3.04l-.039,0-.037.012a2.253,2.253,0,0,1-.483.068l-.03,0-.541-.007-.355.07-.844.059-.459.078-.3.071-.66.26-.635.088-.617.2-.024.028-.971.174a1.5,1.5,0,0,0-.412-.186l-.2-.171-.41.089a2.2,2.2,0,0,0-.265,0,4.834,4.834,0,0,0-.676.111l-.38.07-.411.081-.232.163-.115.048-.368.219-.385.3a1.854,1.854,0,0,1-.276.191l-.623.119-.139-.036-.852.2-.7.005-.452.116a12.081,12.081,0,0,0-2.04-.026l-.6-.117L43.4,39.2l-.5.086-.479.131-.451.207-.393.694-.035.489.249.357.379.217.625.111,1.027-.118.036,0a8.054,8.054,0,0,0,1.042-.164c.107-.023.208-.043.3-.061l.45-.032.27.07.116-.134.013-.005c.118-.011.235-.029.353-.051-.109.084-.219.168-.332.248l-.363.237-.36.214-.513.5-.593.261-.42.432-.264.35-.3.237-.156.064-.232.268-.681.593-.132-.225-.311.547-.3.223L41.4,45l-.2.054-.3.286L40,46.15l-.2.23-.115.226-.559.647-.721.593-.077.137-.263.218-.521.6-.185.328-.258.788-.275.89.166.7.067-.027c.075.348.523.592,1.1.875.086.043.187.092.215.111l.035.022.039.013a3.188,3.188,0,0,0,.725.141l.026,0,.026,0a.388.388,0,0,0,.081-.014l.84.034.841-.014.275-.019.36.077.3-.125.157-.229.088-.036.159-.137c.422-.158.837-.355,1.276-.563.159-.076.323-.156.491-.231l.056,0,.327-.079.156-.093.437-.071.249-.081.366-.3.126-.183.279-.1.169-.2h.018l.327-.284.38-.026-.012-.174.076-.006.25-.289.242-.181.35-.024-.016-.226a19.144,19.144,0,0,0,2.288-1.9l.072-.043L50.6,46.8l.226-.262.157-.229.369-.427.392-.305.3-.505.255-.5.008-.034a.861.861,0,0,0,.017-.291c0-.013,0-.029,0-.041l.139-.334.009-.024a3.969,3.969,0,0,0,.138-.719l0-.022-.012-.881-.284-.569-.177-.345-.626-.593-.386-.206-.2-.126-.068-.029-.2-.175-.151.011-.024-.009-.032-.011.264-.019.352-.162c.428-.079.827-.167,1.213-.257.3-.067.577-.13.86-.186l.761-.006.245-.172.368-.111.072-.043c1.193-.252,2.521-.522,4.382-.779h.01c.173-.028.309-.062.441-.094a3.424,3.424,0,0,1,.641-.108l.527-.081.635-.045a13.532,13.532,0,0,1,2.787.013l.594.116.336.218.387.161.053.076c.006.021.012.041.019.062l-.214.692-.067.21c-.018.039-.036.079-.054.12a2.36,2.36,0,0,0-.182.516l-.006.038,0,.031L64.8,40.5l.061.877.752-.313.254-.448v-.008l.08-.093,0-.078.107-.189.358-.758.089-.258.293-.284-.026-.371ZM40.787,47.122,40.8,47.1l.553-.459.2-.188L42,46.13l.487-.378.635-.4.235-.22.031-.035.789-.6.283-.19.423-.344,1.5-1.029.3-.3.353-.319c.345-.268.641-.518.9-.736s.485-.41.716-.584l.191.049.367.189.421.109.276.1.33.177.287.177.219.191.18.306V42.8l-.149.414.018.264a6.07,6.07,0,0,1-.591,1.14l-.094.006-.145.255-.133.154-.039.093-.156.051-.161.318-.207.279-.257.249-.1.168-.095.148c-.3.3-.61.616-.913.883l-.1.061-.134.155-1.175.927-.029,0-.245.08-.78.488-.319.369-.393.233-.249.018-.067.163a15.4,15.4,0,0,1-1.669.756l-.206.086a5.737,5.737,0,0,1-2.117.614c-.194.014-.412.022-.688.024h-.016a.576.576,0,0,1-.057-.008c-.028-.005-.061-.011-.1-.015l-.286-.163-.051,0a1.1,1.1,0,0,1-.19-.469l.01-.041.057-.138-.019-.274.059-.186.041-.236,0-.065a3.529,3.529,0,0,1,.5-.913l.067-.005.277-.453.345-.538ZM75.578,14.645c-.6-.07-1.214-.143-1.84-.2l-.231.056-.374.027-.207.068-.273-.049L72,14.336c-.683-.064-1.4-.094-2.091-.122l-.073.286-.493-.28-2.769-.057-.926.191-.254.018-1.565-.064-.553.039,0-.043-.181.013-.727.009-.128.009L62.09,14.3l-.862-.022c-.157.011-.312.011-.461.01s-.293,0-.432.01l-.172.012a2.281,2.281,0,0,1-.314,0,1.59,1.59,0,0,0-.164-.005l-.756.054-.045.108-.753-.016-.077-.033c-.136.01-.27.007-.4.007-.1,0-.206,0-.305,0l-.131.151-.285-.185-.072.083L56.7,14.6l-.164.1-.187.013-.262-.025-.468.033-.393-.021-.382-.086-.034.011-.035.2-.636.175-.732.1-.544-.011-.383-.114-.386-.088-1.134.08-.372-.021-.284-.02-3.161.223-.74.1-.311.022-.425.117-.842.059-.38-.056-.3.055-.314.131-.49-.111c-.106.008-.22.027-.34.044s-.263.039-.393.051l-.148.048-.477.131L41.7,15.7l-.188.093-.432.03-.272.133-.373-.131-.141.01L39.176,16a1.99,1.99,0,0,1-.488.081l-.4.111-.751.188-.7.049-1.52.316L34.812,17l-.87.159-.19-.034-.183.013a2.643,2.643,0,0,1-.45.115L33,17.348l-.518.084-.555.215-.876.106-.526.145-.206.16-1.257.221v0l-.5.12-1.033.339-.778.1-.1.008-.645.156-.041.048-.884.205-.5.209,0-.07h-.024l.006.076-.363.026-.51.157-.281.1-.167.069-.172.013-.106.044-.555.121-.124.1-.347.074-.3.11-.742.136-.648.385-.385.126-.316.086-.119-.049-.438.081-.337-.1-1.962.591a19.451,19.451,0,0,1-2.423.98l-.013.016-.234.338-.205.015-.06.034-.512.131-.989.245-.535.121-1.282.474a14.781,14.781,0,0,0-1.5.8c-.261.153-.531.312-.826.471-.505.371-.987.665-1.5.976-.28.171-.57.348-.866.539l-.068.044-.079.006a2.38,2.38,0,0,0-.631.522,2.8,2.8,0,0,1-.729.6.6.6,0,0,1-.348.079l-.046.474-.177.313-.29.07-.159.184-.5.128-.047.038-.079.089L1.173,30.6.139,30.131.12,29.857,0,29.529l.025-.2a.615.615,0,0,1,.026-.426l-.008-.122.021-.721.2-.014.111-.129-.021-.3L.7,27.212l.357-.556.467-.482.056,0,0-.007.323-.191.059-.044-.239-.733.648.372.488-.413.22.191.243-.281.452.19.187-.156.411-.076.135-.08.169-.274.386-.447.609-.253.921-.15a2.81,2.81,0,0,1,.479-.239l.41-.244.7-.274.852-.353.457-.321.382-.027.961-.383.338-.294.681-.2.012.02.348-.271.467-.221-.011-.152.475-.033-.015-.217.607-.043.307-.079.117.049.049,0,.347-.144.185.106.139-.01.255-.061.187-.013.378-.169.131-.1.483-.183.5-.129.728-.1c.5-.138.972-.257,1.426-.376.693-.178,1.292-.333,1.819-.5H20.8l.585-.167.313-.113,2.275-.6.58-.083.107-.044L26.9,17.2l.651-.09.855-.206v0l.954-.184L30.5,16.3l.545-.131.749-.142.887-.105.525-.12.527-.173,1.98-.184.173-.013a4.823,4.823,0,0,0,.736-.13l.41-.181.052-.3.611.059.335.18a1.213,1.213,0,0,0,.31-.056l.014,0,.216-.059.681-.179.239-.066L40,14.662l.124.071,2.558-.387L42.8,14.3l.623-.135.3-.071.676.043a.725.725,0,0,0,.094-.022,1.115,1.115,0,0,1,.232-.044l.08-.006,3.274-.36.175-.058.312-.022.511-.123.2-.014.29-.194.349-.025.53.137.506-.036.175.031,1.213-.086.029-.033.547-.094.6-.085.477-.083.718.128,1.818-.128.14-.356.322.281.355-.025,0,.058,1.534-.038.263-.136.6-.145.653.084.651-.172.362-.026.463.059.515.049.279.02.369-.026.882.2a8.305,8.305,0,0,1,.958.013l.232-.268.289.252,1.806.038,2.174.1.275-.067.408.073.207.027.671.079.488-.034.067.058.189.014h.585l.333-.024.208.182,1.072.113.309-.067.408.073.541.088.829-.009.107.094.906.094.194.021c.415.045.842.092,1.255.171l.259-.063.49.1.1.128c.828.2,1.651.474,2.449.742l.423.141.322-.023.2.035.305.022.1.018.215-.09.3-.021.3.369.24.139.379.256.041,0,.069.029a.572.572,0,0,1,.277.249l.658.45.177.826-.852-.047-.414-.316-.527-.239-4.255-1.156-.3.021-.425-.227a2.181,2.181,0,0,0-.4-.1l-.052-.009-.177.013-.067-.058-.059-.014-.017,0-.062,0-.262-.025-.232.017-.128-.112-.7-.14c-.4-.042-.808-.089-1.235-.139m-38.655,11.8L36.6,26.6l-.371.068-.035.021-.38.834-.4.605-.154.273-.046,0L34.14,30.229l-.294.2-.666,1.065-.016.173.009.818L32.9,32.9l-.33.744-.209.123-.212.246-.164.011-.082.064-.206.086-.081.118-.107.309-.505.771-.221.747-.275.265-.187.3-.215.3L30,37.112l-.664,1.034-.027.105-.127.308-.155.272-.107.259-.192.114-.162.252-.041,0-1.059,1.693-.1.374-.164.4-.239.421-.277.518-.459.6-.045-.012-.318,1.018-.517.666-.228-.059-.376.687.224-.016-.585.676-.022.41-.156.093-.129.227-.129.15-.14.2-.157.276-.23.358-.268.473-.245.143-.69,1.3,0,.034-.241.521-.049.057-.621,1.073-.036.143-.287.431-.053.136-.109.368-.124.245-.482,1.066-.376.961-.485.773-.149.088-.237.508.438.382-.611.043c-.042.1-.082.194-.124.293-.059.144-.121.291-.19.442l-.026.205-.593,1.619.211.184-.377.223-.169.343.051.156-1.062,2.731-.205.179-.031.036a2.422,2.422,0,0,0-.171.661l-.009.1-.066.076c-.034.039-.067.076-.1.11l-.014.153-.1.317-.255.3-.724-.446.081-.46.181-.245.412-1.721.457-1.276.061-.348,0-.046.121-.543.03-.047a.71.71,0,0,1,.423-.323l.156-.465a50.886,50.886,0,0,1,1.774-4.817l.523-1.474.2-.233a4.647,4.647,0,0,1,.608-1.168l.329-.846.29-.423.052-.47.9-1.56.1-.44.522-.946.373-.686.742-.623.728-1.229-.134-.117.382-.44.239-.238.059-.143.457-.758.139-.489.833-1.393.267-.5.895-1.6.582-.811.154-.373.09-.1.324-.613-.006-.083.1-.122.262-.459.081-.7.207-.366.351-.351.237-.109.046-.244.056-.1,0-.028-.106-.259.225-.26.025-.2.042-.061-.451-.394.753-.053.48-.556.033.056.025-.029.22-.434.01-.015L32.1,29.846l.412-1.343.324-.986.342-.988.518-.652.2-.1.148-.206L34.75,24.5l1.324-.7.361.378.165-.129.483-.034L37.1,24l.333-.093.442-.031.4.278.189.523-.264.5-.336.572-.18.435-.06.037-.071.275-.461-.059Zm176.267.36-.445.264-.018-.258-.03,0c-.053,0-.1-.006-.153-.006l-.161.1-.232.017-.531.086-.462-.149c-.45.017-.9.029-1.332.04-.8.021-1.555.041-2.3.088l-.037.089-.46.033-1.655.074-.585.141,0-.073-.2.031-.718.01-.111.066-.254-.045-1.7.12-.275.066-.348-.019-.242.058-1.26.045-.348.068h-.616l-.6.086-.477.033c-.706.05-1.408.141-2.125.236l-.433.074-.707.094-.249.017c-1.7.206-3.422.455-5.18.713l-.3.021a3.053,3.053,0,0,1-.592.086l-.169.055-.067,0-4.215.689h-.023l-.094.138-.494.43-1.065,1.459-.19.461-.7.814-.114.165-.1.441-.9,1.33-.473.688-1.248,1.862L177.118,39.5l-.355.5-.358.654-.322.327-.462.882-.181.6-.718,1.073-.216.488.018.262-.178.139-.19.643-.4.8.191.167-.331.383-.563,1.411-.2.8-.277.671.021.307-.731,1.663-.1.454-.381.719-.156.826-.812,1.915-.089,1.159-.246.955-.205.86-.269.711-.3.154-.07.169-.432.993-.739.8-.56-.2-.267-.233L167,59.328l.5-1.533.777-1.78.156-.526-.089.006-.046-.666.174-.012.013-.022.022-.236.146-.406.082-.719.192-.4.08-.093.13-.27.08-.194-.026-.368.14-.246.216-.251,0-.063.12-.071.071-.083.27-.572.214-.522.112-.323.368-.745.03-.171.24-.527c.762-1.845,1.674-3.778,2.868-6.083l.29-.857.3-.5.307-.447.54-.951.5-.806.3-.636.012-.019.941-1.408.156-.275,2.141-3.411.284-.528.376-.386a.439.439,0,0,1,.089-.117l.477-.864.214-.247.068-.266.395-.457-.583,0-2.135.363L178,30.8l-1.345.183-.565.129-.137.01-2,.4-.122.051-1.187.286-.175.254-.383.027-1.777.421-.958.456-.454.172-.543.081-.385.187-.925.414c-.964.428-1.368.634-1.586.741a1.6,1.6,0,0,1-.6.206c-.242.047-.694.134-1.72.386l-.026.006-.043,0-.263.057-1.7.547-1.352.656-1.012.6-1,.476-.3.065-1.032.473-1.589.112-.606-.431-.057-.05-.674-.228-.066-.939-.106-.259.323-.373-.184-.161.591-.351.165.069.069,0,.18-.108.492-.316,1.073-.3L157.345,34l.881-.263.275.071.719-.164.561-.218.191-.027.388-.384.62-.186.267.233.034,0,.581-.453.55-.194.439-.031.015.217.425-.03.2-.232.492-.035,1.734-.418.046.079c2-.529,4.012-1.012,5.909-1.461l3.727-1.1,1.661-.029c1.759-.338,3.579-.686,5.417-.99l.029,0,.025,0c.022-.024.044-.046.065-.068l.018-.339.171-.2.164-.127.072-.043.023-.091-.016-.229.432-.156,1.972-2.555.6-.777.153-.6.565-.336,1.3-1.551.428-.408.26-.436.915-1.156.678-.5-.008-.118.107-.255.4-.235.33-.3,2.128-2.462,1.1-.946.689-.844.418-.293.149-.173.062-.054,0-.063.329-.381.134.116.274-.114.638-.611.2-.226.08-.006a5.918,5.918,0,0,0,.447-.4c.091-.087.184-.176.286-.268l.029-.111.316-.366.121.051,2.446-2.074,1.388-1.051-.006-.09.33-.382.347-.024.676-.5.072-.084.149-.129.315-.471.826-.247,1.829-1.235a.821.821,0,0,1,.511-.388,1.616,1.616,0,0,1,1.329-.831l.281-.1a.649.649,0,0,0,.155-.093.818.818,0,0,1,.392-.176l.959-.549.538-.368.326-.071,1.247-.561.192-.077a21.145,21.145,0,0,1,2.693-.894.49.49,0,0,1,.4-.217,1.661,1.661,0,0,1,.167,0c.042,0,.082,0,.114,0l.022,0,.089-.063.12.016a1.51,1.51,0,0,0,.276.007l0-.064.55-.039.09.063c.007.005.016.011.056.008s.071-.009.107-.016a1.339,1.339,0,0,1,.157-.021.623.623,0,0,1,.207.018A11.1,11.1,0,0,1,219.1.133l.292-.071.557.126.144.083.549.158.18.234.206.118.037-.043.518.452-.139.161v0l.117.243.079.518.31.645.008.125a.842.842,0,0,1,.2.427.825.825,0,0,0,.04.138l.025.029.018.038a1.128,1.128,0,0,1,.021,1.2l-.012.05a1.543,1.543,0,0,1-.8,1.22.734.734,0,0,1-.3.084,1.132,1.132,0,0,1-1.015-.7l-.006-.031-.007-.029c-.055-.233-.13-.369-.229-.419l-.195-.1.028-.219a.947.947,0,0,0,0-.126.693.693,0,0,1,.247-.631.6.6,0,0,0-.044-.311l-.024-.083-.017-.062V3.345c-.015-.024-.04-.06-.057-.083a.865.865,0,0,1-.2-.788.9.9,0,0,1-.193-.294l-.03-.072.007-.078,0-.035a.693.693,0,0,1-.609-.236l-.443.145-.325.023-.7-.081h-.014a1.449,1.449,0,0,1-.265-.011c-.029,0-.07-.008-.084-.008l-.114.008-.091-.069a.633.633,0,0,0-.427-.064l-.16.011-.172.012a2.3,2.3,0,0,1-.245.006h-.026l-.025-.006a.474.474,0,0,0-.126-.008,1.658,1.658,0,0,0-.445.131l-.154.059h-.01l-.656.215-.78.389-.362-.054a.4.4,0,0,1-.08.025l-.1.045.071.127-.8.238-.106.008A30.407,30.407,0,0,0,209.2,4.511l-.045.109-.4.184-.069.068a1.147,1.147,0,0,1-.722.422l-.044,0-.375.223-.182.247-.182.379-.728.406-.25.121-.4.069-.119.083-.331.383.019.27-.591.041-.005-.008c-.544.409-1.1.833-1.651,1.284l-.157.137-.995.913-.5.324a.275.275,0,0,1-.035.025l-.214.253-.024.019-1.1.86-.154.134-.2.184-.984.951-.25.194-.735.673-.352.549-.766.689-.2.186-.8.739-.286.146-.85.847-.815.943-.247.192-.579.67-1.134,1.358-.4.414-.325.375-.952,1.011-.634.923-.3.294-.322.149-1.511,1.748-.876,1.2-.364.375-.7.951-.57.751c.082-.011.165-.021.249-.031l.2-.235.159.139.029-.013.261-.072.51-.036.7-.229.46.025.119.049.048.013c1.477-.23,3.018-.428,4.51-.616l.681-.223,1.123-.124L195.3,26.6c1.315-.133,2.8-.283,4.253-.386l.134-.056.831-.012,1.744-.123.09.038c.654-.046,1.33-.094,2.021-.1l.075-.045.574-.041.508.008,1.781-.126.433-.08.239.062.166.1c1.129-.039,2.29-.078,3.439-.077l.171-.056.529.007.625-.17.427-.03.17.044.3.054.257-.018.289-.121.351.063.106.093.345-.024.116.1.618.066.641-.046.342.025.791.1.124-.1,1.683.207a.683.683,0,0,1,.146.026l.017,0,.41-.029a1.164,1.164,0,0,1,.363.018l.705-.05.179.074.094-.007.2.035,4.229.263.334-.023.006.086.086-.006.019.271.046.04.043.616-.307.022a.494.494,0,0,1-.218.059h-.035c-.859-.035-1.614-.1-2.28-.161-.252-.022-.484-.044-.715-.062l-.15.011a.48.48,0,0,1-.249-.039l-3.213-.2-.281.02a.361.361,0,0,1-.175-.031l-.1.007-.8-.033c-1.23-.068-2.495-.064-4.1-.059ZM330,21.786l-.491.238-.371.153-.169.083-.874.707-.25.411-.3.021-.087.051c-.281.217-.58.408-.87.592l-.258.166-.039.045-.309.208-.227.2-.159.011-1.179.7-.054.13-.274.089-.372.221-.585.439-1.606.817c-.161.1-.325.2-.485.3-.315.2-.639.4-.968.571l-.116.134-2.1,1.2-.39.342-.11-.143-.259.192-.528.128-.356.214-.048,0c-.526.289-1.059.538-1.574.78l-.618.388-1.319.753-.393.128-.493.119-.728.273-.4.069-.092.055-.192.168-.649.2-.072,0a10.359,10.359,0,0,1-1.6.487l-.116.134-.262.072v.009l-.931.255-.24-.062-.438.2-1.174-.116-1.1-.458-.548-.668-.282-.609-.188-.654-.059-.839.006-.013-.007-.013-.029-.42.242-1.187.274-.562.291-.807.255-.5.061-.071.109-.37.249-.241.094-.268.26-.459.178-.206.443-.241.16-.233.329-.169.32-.278.071-.043.39-.405.332-.3.261-.438.169-.2.21-.294.23-.2.2-.083.039-.069.265-.308.4-.182.171-.083.154-.131c.844-.713,1.714-1.451,2.641-2.088l.072-.083.461-.376.6-.281.517-.4.316-.211.182-.076.594-.129c.441-.2.894-.4,1.348-.561l.41-.268.462-.033.347-.144.186.106a7.3,7.3,0,0,1,.8-.027l.285-.118.061.025.084-.1.27.069.623-.044L319,17.37l.071.121.278.116.071.063.016.011a1.473,1.473,0,0,1,.487.463l.2.049.443-.031-.449.52,0,.049.069.213-.094.44-.056.1.014.214-.144.748-.344.661-.448.518-.476.356-.381.3-1.441.88-.226.209-.305.112a28.313,28.313,0,0,1-2.927,2.023l-.039.1-1.28.736-.539.435-1.13.577-.822.373-1.193.31-.726.1-.373.026-.446-.186-.225-.467.149-.262.274-.663.645-.692.653-.307.447-.031.345.073.309.055.5-.035.455-.11.57-.267.062,0,.047-.082,1.3-.556,1.1-.633.483-.308.209-.292.51-.239.077-.188.684-.283.125-.145.541-.483,1.8-1.758.1-.152.062-.3.081-.142.121-.473-.035-.061-.079-.166-.145-.163-.222-.078-.246-.052-.408.029-.337.073-.162-.029a13.967,13.967,0,0,0-2.617,1.254l-.308.176-.453.269-.1.114-.33.306-.064-.011-.353.147-.116.134-.136.009-.821.528-.415.393-.322.373-.471.179-.126.072c-.238.187-.461.394-.694.612-.1.093-.2.189-.309.285l-.19.265-.535.571-.286.331-.439.462-.55.636-.562.744-.1.116-.219.388-.286.478-.4.459-.286.524.018.254-.271.314-.089.136.011.149-.157.278.035,1.127-.025.029a1.155,1.155,0,0,0,.085.505c.04.041.072.078.1.106.12.133.142.157.987.365l.7.114.5-.036.608-.125,3.06-.9.584-.3,1.6-.668.325-.236.23-.136.1-.007,2.513-1.267.152-.011.26-.175.408-.122,1.383-.619.162-.053c.867-.439,1.431-.771,2.028-1.124.434-.256.883-.522,1.488-.853l.023-.012.811-.363.03-.071.36-.214.768-.319.6-.305-.014-.192.368-.026.346-.206.032-.076,2.344-1.681.217-.059a9.492,9.492,0,0,0,.819-.655.46.46,0,0,1,.3-.142.486.486,0,0,1,.1,0l.15-.13.491.087ZM143.645,34.39l-.15.13a.439.439,0,0,0-.095,0,.466.466,0,0,0-.3.142,9.25,9.25,0,0,1-.819.654l-.217.059-2.348,1.68-.032.076-.346.206-.368.026.013.193-.6.3-.768.319-.36.214-.03.071-.811.363-.022.011c-.605.331-1.054.6-1.489.853-.6.353-1.16.686-2.027,1.124l-.163.053-1.383.619-.408.122-.26.175-.152.011L128,43.061l-.1.007-.23.136-.325.236-1.609.668-.583.3-3.06.9-.608.126-.5.035-.7-.114c-.846-.208-.868-.232-.987-.364-.026-.029-.059-.065-.1-.106a1.165,1.165,0,0,1-.086-.505l.026-.03-.032-1.12.158-.278-.011-.15.088-.137.27-.313-.017-.254.286-.524.4-.459.286-.479.22-.388.1-.116.563-.744.549-.636.44-.463.286-.331.535-.571.19-.266c.107-.1.209-.191.309-.285.234-.218.457-.424.694-.612l.127-.072.471-.179.322-.373.415-.393.821-.528.136-.009.116-.134.353-.147.064.011.33-.306.1-.114.452-.269c.095-.053.2-.113.308-.176a14.023,14.023,0,0,1,2.617-1.254l.162.029.338-.073.408-.029.245.052.222.078.148.154.08.166.035.061-.121.472-.081.143-.063.294-.1.152-1.8,1.758-.54.483-.126.144-.683.284-.077.188-.509.239-.209.292-.483.308-1.1.633-1.3.556-.047.082-.062,0-.57.268-.456.109-.5.035-.308-.055-.346-.073-.447.031-.653.307-.644.692-.274.663-.149.262.225.467.445.186.374-.027.725-.1,1.194-.31.823-.373,1.13-.577.54-.435,1.278-.734.039-.1a28.214,28.214,0,0,0,2.927-2.023l.305-.111.226-.21,1.441-.879.381-.3.476-.356.448-.518.344-.661.144-.748-.015-.213.056-.1.094-.44-.069-.213,0-.048.45-.521-.443.031-.2-.049a1.478,1.478,0,0,0-.487-.462l-.016-.011-.071-.062L133.545,31l-.071-.121.078-.189-.623.044-.27-.069-.086.1-.061-.026-.285.118a7.154,7.154,0,0,0-.8.028l-.186-.107-.347.144-.462.033-.41.268c-.455.162-.907.364-1.348.561l-.594.129-.183.076-.316.211-.517.4-.6.281-.461.376-.072.083c-.927.637-1.8,1.374-2.642,2.088l-.154.13-.17.083-.4.183-.265.307-.04.069-.2.084-.23.2-.21.294-.169.2-.262.438-.332.3-.39.406-.071.042-.32.278-.33.17-.159.232-.443.242-.178.206-.244.431-.347.206-.044.051a.439.439,0,0,0-.189.124l-.643.649-.029.033-.413.29-.13.151-.576.49-.508.3-.189.181-.215.015-.175.273-.736.6c-.017.007-.034.016-.049.024l-.043,0-1.529,1.188-.161.079-.184.061-1.461.913-.182.013-.121.139-.259.119-.069.023a1.429,1.429,0,0,1-.252.071l-.136-.043-.152-.078-.146-.159-.089-.1-.037-.158a2.006,2.006,0,0,1,0-.378l.169-.334-.071-.127.023-.111.007-.009.216-.381-.023-.333.221-.625.383-.649-.029-.42c.046-.121.1-.243.144-.361a5.87,5.87,0,0,0,.35-1.037l.086-.271a17.058,17.058,0,0,1,.6-1.691l.046-.053.257-.681.025-.469-.174-.424-.459-.245L111.3,36.5a.645.645,0,0,0-.31-.224l-.019-.007a3.5,3.5,0,0,0-1.4-.2,3.325,3.325,0,0,0-1.069.264l-.16.011-1.007.341-.441.132-.395.343-.073.084-.237.065-.15.234-.312.228-.521.6c-.428.319-.87.648-1.307,1.015l-.122.05-.511.4-.693.411-.375.433-.064.114-1.292,1.091-.518.33-.205.123-.259.3-.147.128-.322.325-1.258.9-.329.284-.143.084-.5.324-.18.209-.256.248-.131.19-.3.154-.122.191-.063.038L95.868,46l-.435.276-.062,0-.034-.014-.069-.088.031-.443.257-.62.057-.454.237-.769.433-1.2.209-.807.391-.945-.024-.339.264-.56.091-.054.074-.179c.332-.705.719-1.387,1.094-2.048l.084-.154.122-.141.036-.2c.38-.626.723-1.256,1.057-1.866l1.756-3.05.331-.338.395-.8.564-.894.068-.265.312-.486.655-.758.023-.32.909-1.231.351-.643.207-.323.218-.2.174-.362.388-.709-.011-.163,1.236-1.963.4.035c.508.046.987.086,1.452.169l.626.121.533.223.363.077.816.028.635.19.187.107.028,0,.091.119.363.094.32.1.332.178.137.059.093.024a1.169,1.169,0,0,0,.276.133l.014.005.021.018.59.381.165.069.4.313a.442.442,0,0,0,.106.127l.3.305.293.38.031.027.066.111.35.746.322.549a.774.774,0,0,0,.083.3l.067.164.608.634.381-.921-.077-.068c0-.056,0-.113-.007-.169l-.009-.129-.1-.085,0,0-.06-.311-.285-.807-.122-.238.022-.418-.264-.23-.23-.059-.433-.536-.064-.017-.117-.081c-.074-.054-.151-.111-.23-.173a5.328,5.328,0,0,0-.449-.316l-.034-.061-.32-.28-.195.014-.272-.184-.163-.234-.658-.276-.275-.035-.022-.019-.244-.14-.112.007-.417-.159-.011-.157-.162.011-.111-.187-.234.139-.96-.294-.232-.2-.107.124c-.106-.029-.207-.05-.307-.068l-.274-.2-.262-.045-.924-.061-.377-.158-.4.028.109-.234.261-.533.307-.579-.036-.031,1.469-2.459.426-.36.9-.993L112.01,16l.977-1.516.578-1.783-.224-.736-.606-.53-.517.31-.036-.148-.669.583.016.236-.1.182-.212.329-.578.573-.19.361-.4.386-.434.142-.1.376.048.2-.072.113-.075.294-.066.159-.146.4-.171.369-.455.666-.087.152-.128.2-.1.236-.31.307-.045.251-.062.181-.056.034-.189.334-.269.4-.292.488-.006.014-.06.034-.166.258-.047.093-.144.166-.241.521.006.081-.078.09-.1.3-.029.164-.044.106-.289-.021-.531-.094-.43-.017-.338.024-.694.132-.63-.089-.4.12-.792-.007-.011-.153-.528.037-.139-.121-1.44.1-1.242.218-3.186.225.007.111-.645.1-.127-.111-.152.011.354-.506,1.568-1.952.4-.328,1.367-1.5.028-.3.157-.257.257-.475.357-.371.705-.529-.123-.859-.536-.806-.911.128-.394.456-.188.5-.123.142v.019h-.007l-.225.2-.311.406-.6.446-.207.366-.033.128-.157.256-.18.209-.315.1-.184.325.019.268-.16.186.008.114-.345.55-.119.093-.293.438-.2.234-.47.731-.122.141-1.052,1.687-.1.115-.561.039-.612.087-.678.048-.044.051a3.947,3.947,0,0,0-.516.114l-.325-.024-.165.068-.68.129-.3.021-.264.128-.071.04-.993.274-.312.022-.04.046-.079.006-.15-.039-.821.151-.2.014-.053.062-1.031.189-.1.007-.1.059-1.632.318-.255-.067-.8.108-.689.363a12.14,12.14,0,0,0-2.549.994l-.187.013-.084.1c-.014.016-.028.033-.041.05h0v0a.792.792,0,0,0-.076.122l-.055,0-.126.6.1.591.518.508,1.172.169.938-.258.4-.182.682-.573h.53l.593-.143.207-.123.355-.233,2.116-.791.32-.1,1.089-.248.378-.069,1.664-.334,1.278-.177.531-.126.46-.079-.012.051-.09.218-.1.041-.226.353,0,.063-.16.186,0,.043-.163.189-.27.161-.972,1.53-.029.168-.129.18-.119.093-.733.956.016.229-.483.741-.056,0-.145.255-.04.046-.015.027a4.671,4.671,0,0,1-.433.679l-.094.109-.617.945-.208.193-1.44,2.416-.34.344-.14.339-.1.076-.5.744-.021.166-.135.08L82.7,36.864l.014.193-.161.186.007.113-.049.076-.08.093-.145.225-.053.135-.006.022a.593.593,0,0,1-.071.1,1.5,1.5,0,0,0-.114.159l-.033.038-.167.243-.061.1-.119.091-.264.41-.239.419-.308.5-.223.394a5,5,0,0,0-.375.53c-.044.071-.087.136-.128.2l-.157.182-.041.158-.445.724-.324.218-.111.348-.024.139-.146.238-.336.346-.328.325-.034.085L78,44.023l-.192.339-.109.313-.208.366-.229.307-.156.243-.081.315-.057.323-.05.089-.382.814-.223.348-.078.136-.2.276-.132.234.012.181-.028.033-.142.343-.08.384,0,.069a5.38,5.38,0,0,0-.294,1.351v.036a1.913,1.913,0,0,1-.007.208,1.6,1.6,0,0,0,.026.561l.123.417.225.383.443.158.195.035.4.084.157-.065.559,0,1.616-.609,1.258-.554.146-.169.085-.069.484-.034.367-.121.056-.219.061-.016.483-.34.477-.5.4-.236.12-.009.643-.332.432-.257.793-.5.162-.1.252.018.455-.09.182-.139.33-.3.194-.054.271-.19.209-.2.122-.04.431-.209.43-.178.37-.381.161-.078.738-.367.55-.4.488-.314.122-.141.248-.167.552-.328.417-.158.478-.261.64-.4.46-.341.335-.2L94.2,42.8l-.106.6-.012.419-.086.289-.1.2-.047.111-.217.674-.179.384-.319.665-.071.34-.175.685-.054.656.156.528.4.349.561-.039.167-.193.677-.086.5-.139.488-.362.541-.321.56.144-.031-.434.128-.149.255-.171.212-.149,1-.826,1.075-1.051,1.3-1.268.6-.645.442-.122.336-.444.178-.207.052-.1.2-.014.241-.394,2.176-1.4.13-.15.04-.032a2.03,2.03,0,0,1,.377-.255l.209-.1.844-.477.286-.284.343-.2.1-.115.295-.256.408-.262.294-.108.643-.4a3.444,3.444,0,0,1,.884-.37l.006.005-.007.1-.051.122.012.086a2.151,2.151,0,0,1-.34,1.368l-.02.041-.129.738c-.067.261-.152.533-.243.822a12.62,12.62,0,0,0-.342,1.239l-.271.6-.049.511-.056.094-.067.163-.259.351-.032.182-.138.2-.047.113-.25.149-.113.274.078.4-.019.264.011.812.016.931.885,1.149-.015-.218.218.151.312-.076a1.378,1.378,0,0,0,.376.008,1.289,1.289,0,0,0,.442-.146l.172-.075.421-.073.349-.128.375-.223.064-.05.089-.006.212-.164.243-.235.111-.086.642-.565.436-.258.058-.068.257-.081.343-.142.184-.213.413-.291.136-.158.208-.2.152-.09.318-.248.1-.208.069-.041.136-.211.094-.088.138-.009.434-.446a16.474,16.474,0,0,0,1.473-1.328l.281-.244-.069.194-.274.562-.243,1.187.029.421.007.012-.006.013.059.839.188.654.282.609.547.668,1.1.458,1.174.118.438-.2.24.062.931-.254v-.009l.263-.073.116-.134a10.388,10.388,0,0,0,1.6-.487l.072,0,.649-.2.192-.167.092-.057.4-.069.728-.273.492-.119.394-.128,1.32-.749.617-.388c.515-.243,1.048-.491,1.574-.78l.049,0,.355-.214.528-.128.259-.192.11.144.39-.343,2.1-1.2.116-.134c.329-.172.653-.375.968-.571.159-.1.324-.2.485-.3l1.606-.817.585-.439.372-.221.274-.09.053-.13,1.179-.7.16-.011.227-.2.309-.208.039-.045.258-.166c.29-.184.589-.375.87-.592l.087-.051.3-.021.25-.411.877-.709.169-.083.371-.152.491-.239-.335-.814ZM93.06,42.178l-.122.086-.269.019.012.166-.942.579-.566.249-.528.219-.53.341-.166.231-.672.4-.493.248-.315.163-.418.293L86.13,46.247l-.184.06-.436.306-1.137.611-.192.014-.121.139-.051,0-.252.1L83.5,47.5l-.114.226-.221.015.01.147-.61.311-1.082.643-.061.024-.208.015-.25.176-.319.133-.384.076-.277.215-.3.14-.367.2-.811.253-.086.15-.139.058-.741.221-.137.033.164-.574,0-.534.3-.571.041-.307-.017-.246.17-.826.516-.773.3-.494.289-.8.4-.658.068-.319.2-.388.375-.477.2-.226.844-1.023.643-.838L83.73,38.49l.025-.041.137-.533.576-.946.107-.309.085-.132.04-.046.235-.365.306-.355.291-.384.179-.259.274-.554.212-.373.214-.247.117-.286.769-1.118.277-.415,1.242-1.948.066-.076.689-.889.373-.53.575-1.038.58-.769.037-.148c.179-.288.4-.588.615-.879l.272-.262.126-.307c.091-.149.2-.3.325-.463.094-.124.189-.257.282-.389l2.02-.143.63-.306.381-.027-.012-.163.4-.257.4-.028-.017-.237.074-.038.242-.053c1.368-.139,2.76-.237,4.109-.333.088-.006.18,0,.285,0a3.55,3.55,0,0,0,.355,0l.171.045.22-.072a8.114,8.114,0,0,1,.955-.028l.493.048.184.05.29-.07.339.014.825.079.195-.042-.143.308-.3.816-.138.288-.169.275-.324.333-.217.168-.027.387-.124.26-.2.405-.338.342-.166.461-.061.147-.1.159c-.72,1.152-1.465,2.342-2.156,3.513l-.3.248-.664,1.4c-.23.359-.42.716-.6,1.063l-.438.507-.185.328-.141.443-.246.413-.211.294-.119.288-.448.831-.062,0-.141.341L97.213,37l-.411.64-.183.076-.054.213-.049.056-.041.228-.271.656-.625.909-.158.326-.146.263-.27.452-.157.3-.278-.036-.218.253-.131.121-.432.1.007.1-.57.383ZM302.878,21.132l-.4-.412-.248.229-.074-1.064.121-.072V19.8l-.053-.248-.107-.473-.008-.008-.426.088-.576.3-.293.083-.31-.017-.418.228-.291.071-1.666.458c-.774.4-1.42.779-1.666.924l-.206.123-.2.229-1.695,1.053-.581.409-.246.284-.822.512-.184.129-.37.333-.583.453-.239.323-1.215.928-1.7,1.648-.237.419-.307.254-.515.641-.514.546-.19.115-.29.209-.224.259-.041.1-.353.358-.357.459-.215.249-.164.143-.359.416-.164.336-.182.159-.15.218-.416.433-.65.756-.183.347-.153.222-.163.355-.067.257-.041.1-.087.272-.3.344-.678.591-.517.421-.649-.1-.377-.459,0-.056a.79.79,0,0,1-.124-.549l-.019-.265.109-.125.025-.146-.1-.324.139-.4.144-.564.283-.474,0-.056-.16.052L280,33.2l-.721.092-.109.091-.326.253L278.7,33.5l-.373.115-1.45.588-.408.075-.229.056-.555.216-.408.073-.317.068h-.017a.494.494,0,0,1-.218.059l-.062,0-.482.116-.662.183-.363.026c-.154.024-.3.051-.439.078a5.834,5.834,0,0,1-.631.1c-.046,0-.088.006-.129,0l-.139.083-.18-.075a.591.591,0,0,1-.131-.028l-.241.017-.275-.319-.091-.222v-.007l-.046-.04-.006-.1a1.387,1.387,0,0,1-.09-.733l.026-.369.084-.148c0-.021.006-.041.008-.064a1.27,1.27,0,0,1,.111-.436l0-.044.054-.211.184-.394.035-.2.122-.191a.6.6,0,0,1,.049-.105l.065-.158c.114-.277.241-.544.363-.8s.239-.5.345-.761l.08-.25.128-.2.167-.359.034-.134.178-.383.026-.276.141-.248-.011-.156-.062,0-.507.238-.846.351-.129.1-.315.114-.389.231-1.028.633-.757.539-.24.143-2.4,1.625-.258.3-.062,0-.069.108-1.278.829-.422.188-.062.073L262.5,34.5l-.086.1-.068.04-.171.249h0l0,.024-.5.269-.167.193-.149.011-.147.136-.068.041-.04.046-.146.087-.127.053-.1.062-.264.306-.245.08-.244.089-.184.143-.134.154-.421.251-.649.134-.072.037v0l-.458.356-.106-.092-.152.064h-.008l-.24.278-.234-.2-1.484-.054v-.009h-.02l-.358-.15-.389-.2L255,36.992l-.157.181-.128-.184-.092.006-.011-.154-.193-.278-.006-.086a2.706,2.706,0,0,1,0-.6l-.017-.251.081-.84.074-.421.171-.244.09-.3.049-.184.211-.294.076-.183.283-.374.43-.9.111-.374.113-.173-.156.121-.335.2-.46.341-.64.4-.478.261-.431.161-.552.328-.248.167-.122.141-.488.314-.55.4-.738.367-.161.078-.371.381-.43.178-.43.209-.122.04-.209.2-.271.191-.194.053-.33.3-.182.139-.455.09-.252-.018-.162.1-.793.5-.432.256-.643.333-.113.008-.4.236-.476.5-.483.34-.062.016-.056.219L243.5,39l-.483.034-.086.069-.146.169-1.258.554-1.617.61-.558,0-.158.065-.4-.084-.2-.035-.443-.158-.225-.383-.123-.417a1.616,1.616,0,0,1-.026-.561c.006-.069.008-.139.008-.208l0-.019v-.019a5.387,5.387,0,0,1,.294-1.351l0-.069.08-.383.142-.343.029-.033-.013-.182.067-.119-.683.087-.1.091-.326.253-.155-.136-.373.115-1.45.588-.408.074-.227.055-.557.216-.409.074-.317.068h-.017a.494.494,0,0,1-.218.059l-.062,0-.482.116-.662.183-.363.026c-.154.024-.3.051-.439.078a5.834,5.834,0,0,1-.631.1,1.153,1.153,0,0,1-.129,0l-.139.083-.18-.074a.6.6,0,0,1-.132-.028l-.241.017-.275-.319-.091-.222v-.007l-.046-.04-.006-.1a1.387,1.387,0,0,1-.09-.733l.026-.369.084-.148q0-.031.007-.064a1.269,1.269,0,0,1,.111-.436l0-.044.054-.211.184-.394.035-.2.122-.191a.6.6,0,0,1,.049-.105l.065-.159c.114-.276.241-.544.363-.8s.239-.5.345-.761l.08-.25.128-.2.167-.359.034-.134.178-.383.026-.276.141-.248-.011-.156-.062,0-.507.238-.846.351-.129.1-.315.114-.39.228-1.028.633-.756.539-.24.143-2.4,1.627-.258.3-.062,0-.069.107-1.277.83-.422.188-.061.074-1.616,1.073-.086.1-.067.04-.171.249h0v.021l-.5.27-.167.193-.149.011-.147.136-.068.041-.04.046-.144.087-.127.052-.1.061-.264.306-.245.081-.244.089-.184.143-.134.154-.42.251-.65.134-.072.037v0l-.458.356-.106-.093-.152.064H216.2l-.24.278-.234-.2-1.485-.054v-.011h-.02l-.358-.15-.389-.2-.051-.007-.157.181-.131-.184-.094.006-.011-.154-.192-.278-.006-.087a2.7,2.7,0,0,1,0-.6l-.018-.251.081-.84.074-.421.17-.244.09-.3.049-.185.211-.294.075-.183.284-.375.43-.9.111-.375.257-.4.173-.284.141-.441.262-.459.175-.256.219-.211.032-.076.1-.111.129-.211-.021-.3.182-.013.124-.236.548-.689.146-.3.067-.119.014-.033.047-.368-.034-.489.054-.256-.087-.212-.021-.3.164-.4.267-.257.442-.655.484-.377.505-.036.442.307,0,.076a1.128,1.128,0,0,1,.216.625l.031.028.169.894-.112.638-.228.431-.384.49-.3.824-.326.323-.347.4-.252.34-.133.116-.022.052-.194.283-.2.2-.068.266-.168.012-.748,1.121-.072.173-.132.261-.169.2c-.183.3-.37.609-.511.9l-.008.014-.385.631a4.17,4.17,0,0,1-.23.457l-.121.252-.02.264-.063.5-.189.358-.029.3-.019.022a.177.177,0,0,0,.006.046.683.683,0,0,0,.2.009,6.3,6.3,0,0,0,1.758-.556l.273-.263.479-.084.606-.294.327-.107.32-.189c.583-.3,1.112-.6,1.664-.921l.25-.242.331-.171.369-.2.2-.116.33-.382,1.05-.511a.62.62,0,0,1,.091-.08l.086-.152.367-.134.847-.588.207-.3.155-.051.052-.092.233-.164.148-.171.629-.229,1.19-.839.372-.336.523-.333.478-.553.328-.221.388-.254.5-.251.186-.13.353-.258,1.022-.469.147-.087.33-.217.179-.206.057-.139.307-.183.169.07a4.048,4.048,0,0,1,.555-.3l.031-.036.535-.285.25.065a.686.686,0,0,1,.307.178l.352.091.413.211.075,1.074-.268-.111-.081.2-.327.426-.137.261.019.275-.386.6-.066.208-.137.27-.192.314-.059.1-.136.426-.161.446-.22.3-.028.158-.309.545-.027.149-.141.388-.026.278-.23.5-.1.121c-.176.6-.117.744-.1.766l.011.007.013.012a1.042,1.042,0,0,0,.7.252l.418.013.355-.025.262.025.276-.02A8.028,8.028,0,0,0,234.349,36l.123-.028.058-.067.345-.024.621-.227.242.031.786-.165.057-.067.125-.009.244-.1.592-.089.4-.068a.488.488,0,0,1,.226-.064h.017l.316-.076.4.128.058.076.377-.809.051-.089.057-.323.081-.315.149-.238.229-.307.208-.366.108-.313.192-.339.189-.175.034-.085.328-.326.337-.346.145-.238.025-.139.111-.348.324-.218.445-.724.04-.159.157-.181c.041-.061.084-.126.127-.2a5.14,5.14,0,0,1,.375-.53l.223-.393.309-.5.237-.417.264-.41.119-.091.061-.1.167-.243.032-.038a1.61,1.61,0,0,1,.114-.159.593.593,0,0,0,.071-.1l.006-.022.053-.135.144-.225.081-.093.048-.076-.008-.113.161-.186L245.115,25l.724-1.109.134-.08.021-.166.5-.744.1-.075.14-.339.34-.344,1.44-2.416.208-.194.617-.944.094-.109a4.672,4.672,0,0,0,.433-.679l.016-.027.04-.046.144-.255.056,0,.483-.741-.016-.23.733-.955.119-.093.13-.18.029-.168.972-1.53.27-.161.163-.189,0-.043.161-.186,0-.063.225-.353.1-.041.09-.218.013-.051-.46.079-.531.126-1.278.176-1.664.334-.378.07-1.09.248-.319.1-2.116.791-.356.233-.207.123-.593.143h-.531l-.682.572-.4.183-.938.258-1.173-.169-.518-.508-.1-.591.126-.6.055,0a.829.829,0,0,1,.076-.123v0h0c.012-.017.026-.034.04-.05l.085-.1.187-.013a12.141,12.141,0,0,1,2.549-.994l.689-.364.8-.108.255.067,1.632-.318.1-.059.1-.007,1.03-.189.054-.062.2-.014.821-.151.149.039.079-.006.04-.046.312-.023.993-.273L250.7,11l.264-.128.3-.021.68-.129.165-.068.325.024a3.948,3.948,0,0,1,.516-.114l.044-.051.678-.048.612-.087.561-.039.1-.115L256,8.531l.122-.141.469-.731.2-.234.292-.438L257.2,6.9l.345-.55-.008-.114.16-.186-.019-.269.184-.325.315-.1.18-.209.156-.256.033-.128.207-.366.6-.447.311-.405.225-.2h.008V3.322l.123-.142.188-.5.394-.456.919-.129.536.806.122.859-.705.529-.357.371-.257.475-.157.257-.028.3L259.3,7.183l-.4.328-1.568,1.952-.354.506.152-.011.127.111.645-.1-.007-.111,3.186-.225,1.242-.218,1.44-.1.139.121.528-.037.011.153.792.008.4-.121.629.09.694-.133.338-.024.43.018.531.094.287.021.367.02,1.08.223.082-.006.351.063.6-.043.377.158.924.061.262.044.274.2a3.142,3.142,0,0,1,.307.068l.107-.124.232.2.96.294.234-.139.11.187.162-.012.011.158.417.159.112-.008.245.141.021.018.275.036.658.275.163.235.272.183.195-.014.321.28.034.061q.231.146.448.316c.081.061.156.119.23.173l.117.081.064.017.433.536.23.059.263.23-.022.418.122.238.285.807.061.311,0,0,.1.085.009.13c0,.056.007.113.006.169l.077.068-.38.922-.608-.634-.067-.164a.774.774,0,0,1-.084-.3l-.324-.551-.35-.746-.066-.111-.031-.028-.292-.38-.305-.3a.44.44,0,0,1-.106-.127l-.4-.313-.165-.069-.59-.381-.021-.018-.014-.005a1.182,1.182,0,0,1-.276-.133l-.093-.024-.137-.059-.332-.178-.32-.1-.363-.094-.091-.119-.027,0-.187-.107-.636-.19-.816-.028-.363-.077-.533-.223-.626-.121c-.465-.083-.943-.123-1.452-.169-.2-.018-.4-.034-.606-.055l-.084.05-.837-.088-.321-.018-.39.028-.325.07-.825-.079-.339-.014-.29.069-.184-.05-.492-.047a7.981,7.981,0,0,0-.955.027l-.22.072-.173-.044c-.129.009-.25,0-.355,0s-.2-.005-.285,0c-1.349.1-2.742.193-4.109.333l-.242.053-.074.038.017.237-.4.029-.4.256.012.163-.381.027-.63.306-2.02.143c-.093.132-.188.265-.282.389-.12.162-.234.314-.325.464l-.126.307-.272.262c-.215.291-.436.591-.615.879l-.037.148-.58.769-.575,1.038-.373.53-.689.889-.065.075-1.242,1.948-.277.414-.769,1.118-.117.286-.214.247-.212.374-.274.554-.179.259-.291.384-.306.354-.235.365-.04.046-.084.132-.107.309-.576.945-.137.533-.025.041L244.278,29.6l-.625.838-.844,1.023-.2.227-.375.477-.2.387-.068.319-.4.658-.292.806-.3.494-.516.773-.174.827.017.247-.041.306-.3.57,0,.534-.165.573.138-.033.74-.221.139-.057.086-.15.811-.253.367-.2.3-.14.277-.215.384-.076.319-.135.25-.176.208-.015.061-.024,1.082-.643.609-.306-.011-.149.221-.016.115-.226.255-.018.252-.105.051,0,.121-.14.192-.013,1.137-.611.436-.307.184-.06,1.92-1.074.418-.293.315-.163.493-.249.672-.4.166-.231.53-.341.529-.22.566-.249.942-.579-.012-.166.269-.019.122-.086.166-.145.57-.383-.007-.1.431-.1.131-.123.219-.253.358.047.112-.188-.021-.3.182-.013.124-.235.561-.691.146-.3.067-.119.014-.033.047-.368-.034-.489.054-.256-.085-.211-.021-.3.164-.4.267-.258.442-.654.484-.377.505-.036.442.307.005.076a1.13,1.13,0,0,1,.216.626l.031.028.169.894-.112.638-.228.431-.384.49-.3.824-.326.323-.347.4-.251.339-.133.117-.021.052-.195.283-.2.194-.068.266-.168.012-.752,1.127-.073.173-.131.261-.169.2c-.183.3-.371.609-.511.9l-.007.014-.385.631a4.165,4.165,0,0,1-.23.457l-.121.251-.019.265-.063.5-.189.358-.029.3-.019.022a.2.2,0,0,0,.006.046.662.662,0,0,0,.2.009,6.3,6.3,0,0,0,1.758-.555l.273-.263.479-.082.605-.294.327-.107.319-.189c.583-.3,1.113-.594,1.664-.921l.251-.241.331-.171.368-.2.2-.119.33-.381,1.05-.511a.553.553,0,0,1,.091-.08l.086-.153.367-.133.847-.589.207-.3.155-.051.052-.092.233-.164.148-.171.629-.23L267.938,29l.372-.336.523-.333.478-.554.328-.22.388-.254.5-.251.186-.131.353-.258,1.022-.469.146-.088.332-.216.179-.207.057-.139.307-.183.169.07a4.053,4.053,0,0,1,.555-.3l.031-.036.534-.285.25.064a.687.687,0,0,1,.307.179l.352.091.413.212.075,1.074-.268-.111-.081.194-.327.427-.137.261.019.275-.386.6-.066.207-.137.271-.192.314-.059.1-.136.426-.161.446-.22.3-.028.158-.309.544-.026.15-.141.388-.027.278-.229.494-.1.122c-.176.6-.117.744-.1.766l.01.008.014.011a1.042,1.042,0,0,0,.7.253l.418.013.355-.025.262.025.276-.019a8.028,8.028,0,0,0,1.228-.222l.123-.028.058-.067.345-.024.621-.227.242.031.786-.165.057-.067.125-.009.244-.1.591-.088.4-.068a.489.489,0,0,1,.226-.064h.018l.316-.076.4.128.165.215.5-.452.1-.007.436-.723.324-.543.1-.043.131-.316.234-.731.277-.274.06-.235.491-.727.112-.088.424-.769-.013-.192.72-1.034.377-.762.149-.263.17-.367.046-.177.111-.128.207-.346-.008-.119.333-.658.516-.124.044-.06.075-.216a.573.573,0,0,1-.565-.583h0l-.009-.13.08-.093V22.3l.056-.216.023-.044-.232-.074-.032-.472.129-.149-.044-.138.309-.544-.5-.21.844-.232-.011-.154.312-.186.031,0,.161-.186.367-.026.344.026.034,0,.377-.328.284.051.22-.016.425.372-.116.134a.985.985,0,0,1,.292.391l.129.113-.07.276a3.19,3.19,0,0,1-.73,1.739l.046.078-.611.906-.267.064-.287.368-.128.186-.162.468-.086.006-.047.079a5.734,5.734,0,0,1-.488.738.319.319,0,0,1-.122.131l-.137.241-.066.256-.168.35-.355.7-.229.313-.069.165-.232.457-.361.676.277-.019.725-.792.125-.009.58-.671.76-.544.666-.591.151-.175.062,0,.68-.623.046-.053,1.635-1.357.005.067.254-.2.237-.274.2-.066.3-.236.145-.168.086-.006.724-.509.316-.365.3-.231.606-.294.431-.453.512-.329.9-.373.349-.186a15.554,15.554,0,0,1,1.352-.782l.247-.239.816-.386.719-.3.111-.085.394-.258.478-.213.33-.171.577-.086a6.127,6.127,0,0,1,1.978-.454l.375-.155.284.248a1.862,1.862,0,0,1,.588.351.558.558,0,0,1,.177.246l.355.353-.009,1.327-.518,1.254-.669.279Z" transform="translate(22 226.911)" fill="url(#linear-gradient)"/>
    </g>
  </g>
</svg>
